<svg xmlns="http://www.w3.org/2000/svg" xmlns:xlink="http://www.w3.org/1999/xlink" viewBox="0 0 2127 2500"><defs><style>.cls-1{fill:#fff;}.cls-2{fill:#321d0f;}.cls-3,.cls-4{fill:none;stroke:#fdfefe;stroke-miterlimit:10;stroke-width:3px;}.cls-4{stroke-dasharray:11.96 11.96;}.cls-5{fill:url(#linear-gradient);}.cls-6{fill:url(#linear-gradient-2);}.cls-7{fill:url(#linear-gradient-3);}.cls-8{fill:url(#linear-gradient-4);}.cls-9{fill:url(#linear-gradient-5);}.cls-10{fill:url(#linear-gradient-6);}.cls-11{fill:url(#linear-gradient-7);}.cls-12{fill:url(#linear-gradient-8);}.cls-13{fill:url(#linear-gradient-9);}.cls-14{fill:url(#linear-gradient-10);}.cls-15{fill:url(#linear-gradient-11);}.cls-16{fill:url(#linear-gradient-12);}.cls-17{fill:url(#linear-gradient-13);}.cls-18{fill:url(#linear-gradient-14);}.cls-19{fill:url(#linear-gradient-15);}.cls-20{fill:url(#linear-gradient-16);}.cls-21{fill:url(#linear-gradient-17);}.cls-22{fill:url(#linear-gradient-18);}.cls-23{fill:url(#linear-gradient-19);}.cls-24{fill:url(#linear-gradient-20);}.cls-25{fill:url(#linear-gradient-21);}.cls-26{fill:url(#linear-gradient-22);}.cls-27{fill:url(#linear-gradient-23);}.cls-28{fill:url(#linear-gradient-24);}.cls-29{fill:url(#linear-gradient-25);}.cls-30{fill:url(#linear-gradient-26);}.cls-31{fill:url(#linear-gradient-27);}.cls-32{fill:url(#linear-gradient-28);}.cls-33{fill:url(#linear-gradient-29);}.cls-34{fill:url(#linear-gradient-30);}</style><linearGradient id="linear-gradient" x1="1127.64" y1="1629.99" x2="924.01" y2="1629.99" gradientTransform="translate(2141.48 2236.17) rotate(173.92)" gradientUnits="userSpaceOnUse"><stop offset="0.01" stop-color="#cb9355"/><stop offset="0.04" stop-color="#c99755"/><stop offset="0.16" stop-color="#be8e50"/><stop offset="0.36" stop-color="#a27643"/><stop offset="0.49" stop-color="#8c6339"/><stop offset="0.88" stop-color="#412312"/><stop offset="1" stop-color="#391c0a"/></linearGradient><linearGradient id="linear-gradient-2" x1="934.72" y1="1912.72" x2="970.92" y2="1617.9" gradientTransform="translate(2057.51 2319.04) rotate(178.07)" gradientUnits="userSpaceOnUse"><stop offset="0.01" stop-color="#cb9355"/><stop offset="0.04" stop-color="#c99755"/><stop offset="0.17" stop-color="#be8e50"/><stop offset="0.4" stop-color="#a27643"/><stop offset="0.55" stop-color="#8c6339"/><stop offset="0.88" stop-color="#412312"/><stop offset="1" stop-color="#391c0a"/></linearGradient><linearGradient id="linear-gradient-3" x1="903.69" y1="1710.34" x2="817.92" y2="1710.34" gradientTransform="translate(2057.51 2319.04) rotate(178.07)" gradientUnits="userSpaceOnUse"><stop offset="0.04" stop-color="#391c0a"/><stop offset="0.32" stop-color="#754d25"/><stop offset="0.54" stop-color="#946938"/><stop offset="0.78" stop-color="#b18249"/><stop offset="0.92" stop-color="#bc8c4f"/><stop offset="0.98" stop-color="#cb9355"/></linearGradient><linearGradient id="linear-gradient-4" x1="1167.89" y1="772.18" x2="1260.72" y2="698.98" gradientTransform="matrix(1.04, -0.14, 0.19, 1.1, -237.41, 54.27)" gradientUnits="userSpaceOnUse"><stop offset="0.04" stop-color="#391c0a"/><stop offset="0.21" stop-color="#412312"/><stop offset="0.47" stop-color="#754d25"/><stop offset="0.71" stop-color="#8c6339"/><stop offset="0.92" stop-color="#bc8c4f"/><stop offset="0.98" stop-color="#cb9355"/></linearGradient><linearGradient id="linear-gradient-5" x1="1143.34" y1="822.93" x2="1251.64" y2="797.93" gradientTransform="matrix(1.07, 0.03, 0.1, 1.29, -174.07, -341.41)" gradientUnits="userSpaceOnUse"><stop offset="0.04" stop-color="#391c0a"/><stop offset="0.21" stop-color="#412312"/><stop offset="0.53" stop-color="#8c6339"/><stop offset="0.98" stop-color="#cb9355"/></linearGradient><linearGradient id="linear-gradient-6" x1="1095.7" y1="1659.75" x2="1032.68" y2="1486.59" gradientTransform="matrix(-1.04, 0.04, -0.03, -1.03, 2105.65, 2357.76)" gradientUnits="userSpaceOnUse"><stop offset="0.01" stop-color="#cb9355"/><stop offset="0.15" stop-color="#c28c51"/><stop offset="0.39" stop-color="#a87946"/><stop offset="0.6" stop-color="#8c6339"/><stop offset="1" stop-color="#391c0a"/></linearGradient><linearGradient id="linear-gradient-7" x1="1074.08" y1="817.26" x2="1263.01" y2="817.26" gradientTransform="translate(-20.06 42.21) rotate(-1.93)" gradientUnits="userSpaceOnUse"><stop offset="0.07" stop-color="#391c0a"/><stop offset="0.31" stop-color="#412312"/><stop offset="0.57" stop-color="#754d25"/><stop offset="0.75" stop-color="#8c6339"/><stop offset="0.92" stop-color="#bb874e"/><stop offset="1" stop-color="#cf944a"/></linearGradient><linearGradient id="linear-gradient-8" x1="1154.56" y1="849.61" x2="1284.08" y2="849.61" gradientTransform="translate(-20.06 42.21) rotate(-1.93)" gradientUnits="userSpaceOnUse"><stop offset="0.04" stop-color="#391c0a"/><stop offset="0.37" stop-color="#644227"/><stop offset="0.74" stop-color="#b3804b"/><stop offset="0.92" stop-color="#b8844d"/><stop offset="0.98" stop-color="#cc9e58"/></linearGradient><linearGradient id="linear-gradient-9" x1="1075.99" y1="940.11" x2="1078.06" y2="900.59" gradientTransform="translate(-20.06 42.21) rotate(-1.93)" gradientUnits="userSpaceOnUse"><stop offset="0.01" stop-color="#cb9355"/><stop offset="0.11" stop-color="#c28c51"/><stop offset="0.27" stop-color="#a87946"/><stop offset="0.42" stop-color="#8c6339"/><stop offset="0.88" stop-color="#412312"/><stop offset="1" stop-color="#391c0a"/></linearGradient><linearGradient id="linear-gradient-10" x1="1005.55" y1="969.91" x2="1022.14" y2="928.84" gradientTransform="matrix(1.18, -0.01, 0.08, 1.3, -258.47, -353.15)" gradientUnits="userSpaceOnUse"><stop offset="0.01" stop-color="#cb9355"/><stop offset="0.12" stop-color="#c28b50"/><stop offset="0.29" stop-color="#a87742"/><stop offset="0.51" stop-color="#7f552b"/><stop offset="0.56" stop-color="#754d25"/><stop offset="0.77" stop-color="#412312"/><stop offset="1" stop-color="#391c0a"/></linearGradient><linearGradient id="linear-gradient-11" x1="1146.83" y1="1472.33" x2="1046.56" y2="1530.22" gradientTransform="translate(2057.51 2319.04) rotate(178.07)" xlink:href="#linear-gradient-9"/><linearGradient id="linear-gradient-12" x1="979.92" y1="1401.42" x2="1199.35" y2="1401.42" gradientTransform="matrix(-1.04, 0.03, -0.04, -1.07, 2114.81, 2407.32)" gradientUnits="userSpaceOnUse"><stop offset="0" stop-color="#391c0a"/><stop offset="0.49" stop-color="#8c6339"/><stop offset="0.83" stop-color="#c99755"/></linearGradient><linearGradient id="linear-gradient-13" x1="1061.32" y1="924.34" x2="1285.41" y2="924.34" gradientTransform="translate(-20.06 42.21) rotate(-1.93)" gradientUnits="userSpaceOnUse"><stop offset="0.04" stop-color="#391c0a"/><stop offset="0.37" stop-color="#644227"/><stop offset="0.76" stop-color="#8c6339"/><stop offset="0.98" stop-color="#cb9355"/></linearGradient><linearGradient id="linear-gradient-14" x1="1082.81" y1="941.28" x2="1290.53" y2="821.34" gradientTransform="matrix(0.89, -0.05, 0, 0.74, 146.11, 410.5)" gradientUnits="userSpaceOnUse"><stop offset="0.04" stop-color="#391c0a"/><stop offset="0.21" stop-color="#412312"/><stop offset="0.49" stop-color="#754d25"/><stop offset="0.77" stop-color="#8c6339"/><stop offset="0.92" stop-color="#b3895c"/><stop offset="0.98" stop-color="#cb9355"/></linearGradient><linearGradient id="linear-gradient-15" x1="945.56" y1="1364.93" x2="1188.53" y2="1364.93" gradientTransform="matrix(-1.04, 0.12, -0.08, -0.95, 2158.92, 2162.45)" gradientUnits="userSpaceOnUse"><stop offset="0.06" stop-color="#391c0a"/><stop offset="0.47" stop-color="#8c6339"/><stop offset="0.85" stop-color="#bc8b4f"/><stop offset="1" stop-color="#ca9f57"/></linearGradient><linearGradient id="linear-gradient-16" x1="947.78" y1="1307.98" x2="1183.13" y2="1307.98" gradientTransform="matrix(-1, 0.1, -0.1, -1, 2118.36, 2241.93)" gradientUnits="userSpaceOnUse"><stop offset="0.08" stop-color="#391c0a"/><stop offset="0.49" stop-color="#8c6339"/><stop offset="0.9" stop-color="#cb9355"/><stop offset="1" stop-color="#cb9b57"/></linearGradient><linearGradient id="linear-gradient-17" x1="1129" y1="1161.29" x2="1151.04" y2="1214.82" gradientTransform="matrix(1.2, 0, -0.06, 1.37, -99.71, -532.1)" gradientUnits="userSpaceOnUse"><stop offset="0.04" stop-color="#391c0a"/><stop offset="0.27" stop-color="#412312"/><stop offset="0.64" stop-color="#8c6339"/><stop offset="0.98" stop-color="#cc9e58"/></linearGradient><linearGradient id="linear-gradient-18" x1="1129.75" y1="1086.55" x2="1286.43" y2="1086.55" gradientTransform="matrix(1.13, -0.03, 0.05, 1.15, -188.43, -164.74)" xlink:href="#linear-gradient-17"/><linearGradient id="linear-gradient-19" x1="1115.66" y1="1035.03" x2="1131.98" y2="1079.87" gradientTransform="translate(-20.06 42.21) rotate(-1.93)" gradientUnits="userSpaceOnUse"><stop offset="0.21" stop-color="#412312"/><stop offset="0.49" stop-color="#754d25"/><stop offset="0.77" stop-color="#8c6339"/><stop offset="0.83" stop-color="#a47a4e"/><stop offset="0.98" stop-color="#c59b6c"/></linearGradient><linearGradient id="linear-gradient-20" x1="978.99" y1="1320.9" x2="985.56" y2="1383.45" gradientTransform="matrix(-1.08, 0.01, -0.06, -1.16, 2163, 2506.11)" gradientUnits="userSpaceOnUse"><stop offset="0.01" stop-color="#cb9355"/><stop offset="0.13" stop-color="#c28c51"/><stop offset="0.32" stop-color="#a87946"/><stop offset="0.49" stop-color="#8c6339"/><stop offset="0.88" stop-color="#412312"/><stop offset="1" stop-color="#391c0a"/></linearGradient><linearGradient id="linear-gradient-21" x1="1119.3" y1="928.91" x2="1119.3" y2="867.38" gradientTransform="matrix(1.11, -0.01, 0.07, 1.22, -185.6, -251.82)" xlink:href="#linear-gradient-9"/><linearGradient id="linear-gradient-22" x1="827.93" y1="1785.43" x2="863.25" y2="1779.84" gradientTransform="translate(2156.11 2239.59) rotate(173.69)" gradientUnits="userSpaceOnUse"><stop offset="0.01" stop-color="#cb9355"/><stop offset="0.04" stop-color="#c99755"/><stop offset="0.18" stop-color="#be8e50"/><stop offset="0.42" stop-color="#a27643"/><stop offset="0.58" stop-color="#8c6339"/><stop offset="1" stop-color="#391c0a"/></linearGradient><linearGradient id="linear-gradient-23" x1="1170.78" y1="1043.69" x2="1126.58" y2="997.07" gradientTransform="matrix(0.92, 0.03, 0.1, 1.13, -19.19, -190.05)" gradientUnits="userSpaceOnUse"><stop offset="0.01" stop-color="#cb9355"/><stop offset="0.12" stop-color="#c28c51"/><stop offset="0.3" stop-color="#a87946"/><stop offset="0.47" stop-color="#8c6339"/><stop offset="0.88" stop-color="#412312"/><stop offset="1" stop-color="#391c0a"/></linearGradient><linearGradient id="linear-gradient-24" x1="796.82" y1="625.62" x2="793.93" y2="625.62" gradientTransform="matrix(1, 0, 0, 1, 0, 0)" xlink:href="#linear-gradient"/><linearGradient id="linear-gradient-25" x1="1146" y1="836.17" x2="1146" y2="787.81" gradientTransform="matrix(0.98, -0.19, 0.19, 0.98, -180.63, 218.01)" xlink:href="#linear-gradient-9"/><linearGradient id="linear-gradient-26" x1="991.23" y1="1277.89" x2="954.06" y2="1342.28" gradientTransform="translate(2057.51 2319.04) rotate(178.07)" xlink:href="#linear-gradient-9"/><linearGradient id="linear-gradient-27" x1="1085.03" y1="1199.65" x2="1047.29" y2="1265.01" gradientTransform="matrix(-1.52, -0.1, 0.28, -1.03, 2277.22, 2491.15)" xlink:href="#linear-gradient-9"/><linearGradient id="linear-gradient-28" x1="889.41" y1="1662.42" x2="954.51" y2="1652.11" gradientTransform="matrix(1.24, -0.36, -0.17, -1.1, 85.87, 2792.01)" xlink:href="#linear-gradient-22"/><linearGradient id="linear-gradient-29" x1="1138.36" y1="786.22" x2="1138.36" y2="749.3" gradientTransform="translate(-147.44 181.98) rotate(-8.99)" xlink:href="#linear-gradient-9"/><linearGradient id="linear-gradient-30" x1="1020.22" y1="1115.39" x2="1033.29" y2="1151.3" gradientTransform="translate(618.3 -281.71) rotate(21.19)" gradientUnits="userSpaceOnUse"><stop offset="0.21" stop-color="#412312"/><stop offset="0.49" stop-color="#754d25"/><stop offset="0.66" stop-color="#8a6037"/><stop offset="0.98" stop-color="#c59b6c"/></linearGradient></defs><title>Design 2- White</title><g id="Layer_1" data-name="Layer 1"><path class="cls-1" d="M584,1919.08l25.87-66h3.63l22.62,66.5q2.63,7.88,3.5,11.37,1-4.12,3.5-11.25l23-68.37h6.25l-31.12,90.12h-3.5l-23.13-66.25c-.33-1.08-.69-2.16-1.06-3.25s-.69-2-.94-2.87a21.22,21.22,0,0,0-.75-2.13l-.5-1.5a6.06,6.06,0,0,1-.12-.75q-1.5,4.5-3.88,10.38l-26.12,66.37h-3.5l-31.38-90.12H553l22.87,67.25q1.62,4.5,2.69,8.12c.71,2.42,1.1,3.75,1.19,4A87.78,87.78,0,0,1,584,1919.08Z"/><path class="cls-1" d="M740.89,1940.7v-89.37h41.5v5.25h-35.5v32.87H779v5.13H746.89v40.87h36.87v5.25Z"/><path class="cls-1" d="M857.76,1940.7v-89.37h6v83.87h41.13v5.5Z"/><path class="cls-1" d="M974.14,1940.7v-89.37h6v83.87h41.12v5.5Z"/><path class="cls-1" d="M1096.26,1865.58l.25,10.62v64.5h-6v-90.12h2.75l58.88,67.87q6,7.13,9.25,11.38-.51-6-.5-13.75v-64.75h6v90.12h-2.75l-60-69.12q-6.26-7.12-8-9.5Z"/><path class="cls-1" d="M1249.89,1940.7v-89.37h41.5v5.25h-35.5v32.87H1288v5.13h-32.12v40.87h36.87v5.25Z"/><path class="cls-1" d="M1405.38,1859.2a46.1,46.1,0,0,0-18.12-3.87q-18.26,0-18.25,13.5a17,17,0,0,0,4.12,10.94,45.73,45.73,0,0,0,10,9q5.88,3.93,11.75,8.06a41.67,41.67,0,0,1,10,9.87,21,21,0,0,1,4.13,12.5q0,11.38-7.63,17.19t-21.06,5.81q-13.44,0-22.94-6.87l3-4.5a35.38,35.38,0,0,0,19.75,5.87q10.75,0,16.5-4.31t5.75-12.44a16.64,16.64,0,0,0-4.12-10.68,47.83,47.83,0,0,0-10-9.13q-5.88-4.07-11.75-8.31a42.55,42.55,0,0,1-10-10.13,21.53,21.53,0,0,1-4.13-12.62A17,17,0,0,1,1369,1855q6.55-5.19,17.75-5.19a48.55,48.55,0,0,1,20.81,4.5Z"/><path class="cls-1" d="M1523.76,1859.2a46.15,46.15,0,0,0-18.13-3.87q-18.24,0-18.25,13.5a17,17,0,0,0,4.13,10.94,45.5,45.5,0,0,0,10,9q5.88,3.93,11.75,8.06a41.67,41.67,0,0,1,10,9.87,21,21,0,0,1,4.12,12.5q0,11.38-7.62,17.19t-21.06,5.81q-13.44,0-22.94-6.87l3-4.5a35.36,35.36,0,0,0,19.75,5.87q10.76,0,16.5-4.31t5.75-12.44a16.66,16.66,0,0,0-4.13-10.68,47.83,47.83,0,0,0-10-9.13q-5.87-4.07-11.75-8.31a42.74,42.74,0,0,1-10-10.13,21.52,21.52,0,0,1-4.12-12.62,17,17,0,0,1,6.56-14.06q6.57-5.19,17.75-5.19a48.49,48.49,0,0,1,20.81,4.5Z"/><path class="cls-1" d="M403.21,1670.22q9.44-.75,19.3-.75a29.2,29.2,0,0,1,17.07,5q7.2,5,7.2,14.5a24.62,24.62,0,0,1-3.81,13.25,26.8,26.8,0,0,1-9.14,9.25,31.18,31.18,0,0,1,14.4,9.5A22.58,22.58,0,0,1,454,1736.1q0,11.75-7.2,17.87t-19.73,6.13q-12.53,0-23.9-1ZM441,1688.79a12,12,0,0,0-5.51-10.57,21.41,21.41,0,0,0-12.34-3.75q-6.84,0-14.1.5v34.13H415q4.35,0,12.83.75a27.28,27.28,0,0,0,9.32-8.63A21.44,21.44,0,0,0,441,1688.79Zm1.33,60.87a16.52,16.52,0,0,0,5.69-12.94,19,19,0,0,0-5.5-13.62q-5.52-5.74-15.07-7.88a48.31,48.31,0,0,0-10.35-1H409v39.88a187.25,187.25,0,0,0,18.76.62Q436.62,1754.72,442.3,1749.66Z"/><path class="cls-1" d="M527.75,1759.35v-89q11.5-.87,19.25-.88,12.35,0,20.33,6.57t8,18.56a27,27,0,0,1-4.6,15.12,41.9,41.9,0,0,1-10.29,11.13q4.49,6.38,11.08,15.19T580,1747.1q7.38,8.13,16.7,9.25l-.12,4a25.41,25.41,0,0,1-20.75-9q-4.18-4.5-20.76-28-11.86,0-21.55-.75v36.75Zm23.85-41q5.32,0,11.38-7.25a25.47,25.47,0,0,0,6-16.81q0-9.57-6.24-14.5t-16.52-4.94q-5.44,0-12.71.5v42.37Q543.25,1718.35,551.6,1718.35Z"/><path class="cls-1" d="M655.81,1759.35V1670h5.81v89.38Z"/><path class="cls-1" d="M779.38,1677.85a43.48,43.48,0,0,0-17.55-3.88q-17.67,0-17.67,13.5a17.27,17.27,0,0,0,4,10.94,44.15,44.15,0,0,0,9.68,9q5.68,3.94,11.38,8.06a41.09,41.09,0,0,1,9.68,9.88,21.47,21.47,0,0,1,4,12.5q0,11.37-7.38,17.19t-20.39,5.81q-13,0-22.21-6.88l2.9-4.5a33.46,33.46,0,0,0,19.12,5.88q10.41,0,16-4.31t5.57-12.44a17,17,0,0,0-4-10.69,47.5,47.5,0,0,0-9.69-9.12q-5.68-4.07-11.38-8.32a42.12,42.12,0,0,1-9.68-10.12,22.07,22.07,0,0,1-4-12.63q0-8.87,6.35-14.06t17.19-5.19a45.72,45.72,0,0,1,20.15,4.5Z"/><path class="cls-1" d="M872.58,1675.22H843.29V1670h64.39v5.25H878.39v84.13h-5.81Z"/><path class="cls-1" d="M974.73,1759.35V1670h5.81v83.88h39.82v5.5Z"/><path class="cls-1" d="M1087.42,1759.35V1670h40.18v5.25h-34.38v32.88h31.11v5.12h-31.11v40.88h35.71v5.25Z"/><path class="cls-1" d="M1241.49,1760.85a44.69,44.69,0,0,1-32.44-13.31q-13.54-13.32-13.55-32.88t11.86-32.87q11.87-13.32,30.38-13.32a92.06,92.06,0,0,1,29.41,5l-1.57,5a94.08,94.08,0,0,0-27.84-4.5q-15.85,0-25.9,11.75t-10,28.75a39.82,39.82,0,0,0,11.68,28.94,37.82,37.82,0,0,0,28,11.94q14.28,0,24.69-4.5l1.82,4.25a38.46,38.46,0,0,1-12,4.25A73.27,73.27,0,0,1,1241.49,1760.85Z"/><path class="cls-1" d="M1344.19,1747.47q-12-13.37-12-32.87t12-32.81q12-13.32,30.44-13.32t30.5,13.32q12.11,13.31,12.1,32.81t-12.1,32.87q-12.11,13.38-30.5,13.38T1344.19,1747.47Zm4.3-61.81q-10,11.7-10,28.94t10.11,29q10.1,11.75,26.14,11.75t26.14-11.75q10.11-11.74,10.11-29t-10.11-28.94q-10.1-11.69-26.2-11.69T1348.49,1685.66Z"/><path class="cls-1" d="M1498.08,1684.22l.25,10.63v64.5h-5.81v-90.13h2.66l57,67.88q5.8,7.13,9,11.37-.48-6-.48-13.75V1670h5.81v90.13h-2.66l-58.1-69.13q-6.06-7.12-7.75-9.5Z"/><path class="cls-1" d="M1646.84,1759.35V1670H1687v5.25h-34.37v32.88h31.1v5.12h-31.1v40.88h35.7v5.25Z"/><path class="cls-2" d="M375.33,133.83a1.5,1.5,0,0,0,0-3,1.5,1.5,0,0,0,0,3Z"/><polygon class="cls-3" points="1145 267 1617.27 633.77 1535.77 1226.16 982 1451.77 509.73 1085 591.23 492.61 1145 267"/><polyline class="cls-3" points="1548.34 517.88 1553.78 520.43 1554.29 526.4"/><line class="cls-4" x1="1555.32" y1="538.32" x2="1604.08" y2="1104.25"/><polyline class="cls-3" points="1604.59 1110.21 1605.11 1116.18 1600.19 1119.62"/><line class="cls-4" x1="1590.38" y1="1126.47" x2="1124.65" y2="1451.66"/><polyline class="cls-3" points="1119.75 1455.08 1114.83 1458.52 1109.4 1455.97"/><line class="cls-4" x1="1098.56" y1="1450.91" x2="584.07" y2="1210.17"/><polyline class="cls-3" points="578.66 1207.63 573.22 1205.09 572.71 1199.11"/><line class="cls-4" x1="571.68" y1="1187.2" x2="522.92" y2="621.27"/><polyline class="cls-3" points="522.41 615.31 521.89 609.33 526.81 605.9"/><line class="cls-4" x1="536.62" y1="599.05" x2="1002.35" y2="273.86"/><polyline class="cls-3" points="1007.25 270.44 1012.17 267 1017.6 269.54"/><line class="cls-4" x1="1028.44" y1="274.61" x2="1542.93" y2="515.35"/></g><g id="Layer_2" data-name="Layer 2"><path class="cls-5" d="M1057,790.87c7-7.09-24-67.65-80.1-98.09-13.52-7.33-26.67-11.49-53-19.82-39-12.37-75.69-24-82.52-13.4-5.9,9.12,11,33.72,31.61,48.37,23.86,17,44,14.17,70.84,19.48C1015.85,741.65,1050.72,797.2,1057,790.87Z"/><path class="cls-6" d="M1066.87,730.79c-31.56-18.49-58.43-67.73-71.9-75.12-6.27-3.44-11.51-6.94-16.75-13.46-10.7-13.3-6.38-35,9-45.49,9.77-6.64,24.22-10.7,26.5-21.36,2.06-9.63-8-17.08-17.71-20.67s-21-6.19-26.23-14.39c10.6-9.37,27.85-7.31,40.14-1.26s22.6,15.31,36,19.22c-10.74-37.52-.67-80.54,26.43-112.86,1.85-2.2,4.16-4.55,7.13-4.71s5.21,1.88,7,3.87c13.76,15.38,19.36,36.05,18.75,56.46-.72,24.1-9.79,48.41-25.61,68.66,20.09,13.81,24.69,25.93,25.31,34.28,1.45,19.73-18.51,29.22-30,67.83-3.51,11.76-5.48,18.63-3.83,27.47,4.66,25,33,38.06,41.31,41.58C1090,741.73,1075.61,735.92,1066.87,730.79Z"/><path class="cls-7" d="M1106.18,714.59c-9-1.81-18-75.64,18.85-125.55,6.23-8.43,21.31-28.86,36.13-25.63,12.31,2.68,18.62,20.43,19.87,31.66,3,27.32-20.55,46.85-23.23,49a28.43,28.43,0,0,1,7-12.16,3.81,3.81,0,0,1,1.15.09,2.32,2.32,0,0,1,.87.42c1,.94-29.06,31.24-49.85,65.5C1109.13,710.89,1108.35,715,1106.18,714.59Z"/><path class="cls-8" d="M1135.84,722c.68-32.55,25.2-36.67,42-78.12,1.41-3.47,4-10.24,9.67-11.68,7.81-2,18.88,6.85,22.67,17.19.74,2,3.62,10.66-2.2,24.41-10.87,25.69-33.07,24.22-51.31,49.36-4.57,6.3-10.29,16.19-13.86,31C1136.53,739.93,1135.7,728.77,1135.84,722Z"/><path class="cls-9" d="M1145.63,796.88c-2.54-1.64-1.31-7.81-.45-11.56,7-30.63,25.4-54.88,31.82-63.21,34.94-45.32,43-45,46.31-44.2,6.77,1.68,10.75,9.54,13.5,15,1,1.95,8.13,16.54,2.69,30.75-3.58,9.34-9.29,9.9-35,29.37-10.09,7.63-19.34,15.2-24.54,19.45C1157.9,790.44,1149.29,799.25,1145.63,796.88Z"/><path class="cls-10" d="M1042.65,834.35c7.11-9.82-15-40.84-38.73-59.64-11.87-9.4-22.39-14.35-34.26-20-29.45-13.87-39.68-12-69.13-23.67-37.15-14.7-46-27.59-50.52-23.66-10.39,9,21.06,87.86,79.18,108.23,5.66,2,2.21.13,47.1,9.47C1028.41,836,1038.8,839.66,1042.65,834.35Z"/><path class="cls-11" d="M1083.32,892.92c-3.08-13.85,51.52-22,90.4-72.1,14.81-19.07,14.09-27.15,33.54-48s48.91-43.44,57.36-37.09c6.61,5-1.29,26.28-2.61,29.86-5.57,15-14.35,24.66-16.65,26.59-49.36,41.23-73.47,112-129.51,111.76C1102.24,903.89,1085,900.39,1083.32,892.92Z"/><path class="cls-12" d="M1164.19,900.78c-1.8-3.47,8.86-10,23.12-24.42,39.74-40.27,41.23-66.81,70.39-75.29,3.62-1.05,20-5.81,28.24,2.3,4.68,4.6,4.83,11.48,4.85,13.52.14,18.07-20.4,32.84-61.46,61.64-8.13,5.7-12.41,8.65-18.13,11.35C1192,899,1166.78,905.75,1164.19,900.78Z"/><path class="cls-13" d="M1059.41,906.71c-25.05,2.13-46.79,9.58-46.44,13.28.39,3.92,25.66,3.74,46.48,11.74,7.4,2.84,11,4.41,13.94,5.8,9.3,4.43,11.57,6.86,20,8,19.47,2.51,35.48-8,43.89-13.44a87.19,87.19,0,0,0,24.75-24.58,272.63,272.63,0,0,1-34.7,1.72C1094.52,908.69,1084.16,904.6,1059.41,906.71Z"/><path class="cls-14" d="M964.27,865.63c-7-8.27-14.74-17.32-12-22.28,3.79-6.76,23,1.82,84,14.64,31.11,6.54,40.69,8.29,42.43,14.92,2.66,10.14-18.47,27.11-39.79,30.7C1001.91,909.87,971.89,874.59,964.27,865.63Z"/><path class="cls-15" d="M1013.26,910.67c.48-3.3-13.27-5.85-31-14.71-5.44-2.72-21.71-11.28-53.64-43.46-44.45-44.79-48-63.56-72.6-67.88-1.11-.19-25.46-4.19-33.57,7.94-4.32,6.46-2.56,15.26.83,24.88,21.36,60.62,71.79,83.07,71.79,83.07,17.46,7.77,31.76,9.44,55.94,12.26C979.19,916,1012.52,915.75,1013.26,910.67Z"/><path class="cls-16" d="M808.74,869.4c-9.18,5.94,1.24,51.33,29.74,80.79,20,20.73,43.48,27.7,80.67,38.76,25.87,7.69,45.09,9.7,66.36,11.93,25.88,2.71,50.66,5.3,52.64-1.31,2.74-9.19-40-31.11-47.79-35.08-13.58-7-23-10.47-35.36-15.37-41.7-16.5-62.89-24.89-82.9-36.12C828.44,888.5,815.89,864.78,808.74,869.4Z"/><path class="cls-17" d="M1073.87,988.26c-2.59-4.9,17.13-20,22.63-24.2,32.84-25.14,47-21.3,84.64-41.93,31.29-17.13,36.3-27.91,77.92-48.21,9-4.37,16.5-7.67,21.59-9.81,4,1.9,9.44,5.33,12.1,11.31,5.49,12.34-4.53,26.85-10.52,35.51-14.63,21.17-34.66,31.75-45.65,36.7-20.87,9.39-33.67,9.38-58.14,13.67C1113.84,972.63,1077.29,994.73,1073.87,988.26Z"/><path class="cls-18" d="M1214,971.83a188.66,188.66,0,0,1,46-25c15.43-5.83,29.08-10.8,36.06-4.44,7.46,6.8,4.24,23.78-2.36,34.59-7.26,11.89-19,16.84-26.65,20-46.14,18.83-69.21,28.24-109.66,35.36-14.07,2.48-48.92,8.61-50.17,4.1-.84-3,13.86-9.8,26.36-15C1170.92,1002.53,1196.67,985,1214,971.83Z"/><path class="cls-19" d="M803.92,978.13c.31-.8,2.11-4.15,25-3.38,64.42,2.16,86.24,30,136,37.44,54.49,8.13,94-15.4,96.33-8.86,2.23,6.29-33.57,30-75.71,35.07-26.06,3.13-44.76-1.89-76.35-10.73C857.58,1013.23,800.35,987.33,803.92,978.13Z"/><path class="cls-20" d="M806.65,1001.11c1.89-2.29,6.82-1,21.57,4.12,47,16.33,75.46,30.27,75.46,30.27,29.8,14.6,23.5,12.82,31.68,16,27.56,10.77,44.82,9.75,90.39,21.91,22.91,6.11,24.45,7.94,24.47,9.33.11,7.61-45.34,17.75-89.87,14.79a221.11,221.11,0,0,1-34.83-5c-16.38-3.77-57-13.66-90.91-47.09C818.81,1029.84,802,1006.73,806.65,1001.11Z"/><path class="cls-21" d="M1094.17,1110.61c.79-4.11,35.41,6.08,74.54-5,5.75-1.62,8.17-2.58,23-7.12,16.87-5.18,23.7-5.89,35.4-10.9s11.29-6.58,23.72-12.47c14.46-6.85,38.82-18.39,47.11-10.63,5.27,4.93,3.65,17.27-.6,26-19.66,40.49-111.27,36.63-144.52,34-1.29-.1-5.37-.45-9.86-.88-15.94-1.51-24-2.31-30.92-4.33C1105.84,1117.52,1093.69,1113.06,1094.17,1110.61Z"/><path class="cls-22" d="M1136.12,1096.85c-.6-2.4,10-4.11,34.55-18.09a435.31,435.31,0,0,0,68.67-49.18c16-14.49,21.25-22,34.33-24.6,14.18-2.8,32.44,1.35,35.51,10.53,5.5,16.37-38.82,44.34-45.25,48.4C1205.58,1100.74,1137.61,1102.84,1136.12,1096.85Z"/><path class="cls-23" d="M1053.21,1071c.5-3,7.77-2.21,23.86-6.68,24.84-6.89,26.9-14.2,45.59-19.09,19-5,23,.94,46.83-1.58a142.55,142.55,0,0,0,46.43-13.28,101.87,101.87,0,0,1-8.71,12.84,100.27,100.27,0,0,1-14.08,14.5s-1.5,1.26-3.86,3c0,0-4.25,3.21-9,6.14-39.67,24.5-67.75,25.57-67.75,25.57C1081.44,1093.62,1052.17,1077.27,1053.21,1071Z"/><path class="cls-24" d="M1006.39,925.94c15.43,3.5,15.48,6.37,38.58,13.1,27.3,7.94,36.08,6.51,38.59,13.09,3.72,9.77-9.71,28.28-26,31.77-9.88,2.11-18.46-1.8-23-3.95-8.59-4.05-83.14-39.2-78.61-53.37C958.79,917.52,992.23,922.73,1006.39,925.94Z"/><path class="cls-25" d="M1085.17,871.89c-10.2-2.76-15.34-11.88-15.63-12.4-5.94-10.9-1.42-22-.79-23.42a181,181,0,0,0,58.14-13.67c29.69-12.54,43-27.92,46-25,4.34,4.24-21.57,38.23-52.91,61.78C1106.39,869.43,1095.68,874.73,1085.17,871.89Z"/><path class="cls-26" d="M1110.53,549.45a22.18,22.18,0,0,1,7.59-7.46,13.68,13.68,0,0,1,2.59-1.08c6-1.89,16.3,7.42,15.5,14.19-.64,5.43-7.76,5.13-17.25,15.07-7.51,7.86-8.13,13.37-10.36,12.93C1104,582.18,1105.22,558,1110.53,549.45Z"/><path class="cls-27" d="M1074.66,1011.67a233.46,233.46,0,0,1,46-25c27.65-11.18,66.38-21.4,69.84-14.06,2.44,5.16-13.44,17.22-22.62,24.2-17.18,13-41.34,31.4-69.46,25.77A58.6,58.6,0,0,1,1074.66,1011.67Z"/><path class="cls-28" d="M795.38,627.12a1.5,1.5,0,0,0,0-3,1.5,1.5,0,0,0,0,3Z"/><path class="cls-29" d="M1072.57,825c-16.16-4.31-33.24-15.54-31.56-21.55,2.08-7.48,32.68-4.92,41-4.14A141.31,141.31,0,0,0,1107.4,791c21.81-9.56,35.92-22.41,37.33-20.78.91,1-5.53,5.91-10.78,15.78-7.62,14.3-3,20.84-8.27,29C1116.5,829.35,1089.61,829.58,1072.57,825Z"/><path class="cls-30" d="M1040.32,1036.27c12.46-6.27,20.6-13.32,34.73-12.89,9.35.28,22.21,3.88,23.81,10.92,2.36,10.45-21.29,23.29-22.58,24-39.41,21.74-94.69-.4-94.1-8.36C982.55,1045,1007.69,1052.68,1040.32,1036.27Z"/><path class="cls-31" d="M1054.09,1097c14.64,2.93,38,10.74,38.27,20.86.38,12.11-32.34,22-36.79,23.36-72.87,22.06-155.58-20.88-153.36-30,.83-3.41,12.69,1.2,46.82-1.57C1003.33,1105.24,1018.61,1089.9,1054.09,1097Z"/><path class="cls-32" d="M943.82,612.63a40.91,40.91,0,0,0-6.56-3.38,29.79,29.79,0,0,0-3-1,25.39,25.39,0,0,0-4.59-.81,13.5,13.5,0,0,0-4.3.13c-11.91,2.33-21.79,21.82-17.24,34.6,1.51,4.25,5,8.74,27.9,17.86,30.84,12.27,46.26,18.41,50.78,12.85C996.06,661.43,948.58,615.72,943.82,612.63Z"/><path class="cls-33" d="M1089.64,780.85c-22.05-2.68-37.69-24.44-34.71-29.59,3.16-5.46,25.78,10.13,61.38,5,12.64-1.82,18.83-5.09,19.88-3.14C1138.44,757.27,1116.51,784.12,1089.64,780.85Z"/><path class="cls-34" d="M1102,1128c4.63-7.6,29,7.08,70.63,9.35,35.73,1.94,57-6.71,58.53-2,1.69,5.09-21.24,19.79-46.29,25.83-9.68,2.34-46.73,11.28-70.38-10.19C1107.74,1144.83,1098.79,1133.23,1102,1128Z"/></g></svg>