<svg xmlns="http://www.w3.org/2000/svg" 
    xmlns:xlink="http://www.w3.org/1999/xlink" viewBox="0 0 1305 1368">
    <defs>
        <style>.cls-1,.cls-2{fill:none;stroke:#0a423b;stroke-miterlimit:10;stroke-width:3px;}.cls-2{stroke-dasharray:11.96 11.96;}.cls-3{fill:url(#linear-gradient);}.cls-4{fill:url(#linear-gradient-2);}.cls-5{fill:url(#linear-gradient-3);}.cls-6{fill:url(#linear-gradient-4);}.cls-7{fill:url(#linear-gradient-5);}.cls-8{fill:url(#linear-gradient-6);}.cls-9{fill:url(#linear-gradient-7);}.cls-10{fill:url(#linear-gradient-8);}.cls-11{fill:url(#linear-gradient-9);}.cls-12{fill:url(#linear-gradient-10);}.cls-13{fill:url(#linear-gradient-11);}.cls-14{fill:url(#linear-gradient-12);}.cls-15{fill:url(#linear-gradient-13);}.cls-16{fill:url(#linear-gradient-14);}.cls-17{fill:url(#linear-gradient-15);}.cls-18{fill:url(#linear-gradient-16);}.cls-19{fill:url(#linear-gradient-17);}.cls-20{fill:url(#linear-gradient-18);}.cls-21{fill:url(#linear-gradient-19);}.cls-22{fill:url(#linear-gradient-20);}.cls-23{fill:url(#linear-gradient-21);}.cls-24{fill:url(#linear-gradient-22);}.cls-25{fill:url(#linear-gradient-23);}.cls-26{fill:url(#linear-gradient-24);}.cls-27{fill:url(#linear-gradient-25);}.cls-28{fill:url(#linear-gradient-26);}.cls-29{fill:url(#linear-gradient-27);}.cls-30{fill:url(#linear-gradient-28);}.cls-31{fill:url(#linear-gradient-29);}.cls-32{fill:url(#linear-gradient-30);}</style>
        <linearGradient id="linear-gradient" x1="2767.88" y1="1540.53" x2="2564.24" y2="1540.53" gradientTransform="translate(3358.04 1775.6) rotate(173.92)" gradientUnits="userSpaceOnUse">
            <stop offset="0.01" stop-color="#cb9355"/>
            <stop offset="0.04" stop-color="#c99755"/>
            <stop offset="0.16" stop-color="#be8e50"/>
            <stop offset="0.36" stop-color="#a27643"/>
            <stop offset="0.49" stop-color="#8c6339"/>
            <stop offset="0.88" stop-color="#412312"/>
            <stop offset="1" stop-color="#391c0a"/>
        </linearGradient>
        <linearGradient id="linear-gradient-2" x1="2580.14" y1="1749.18" x2="2616.34" y2="1454.36" gradientTransform="translate(3291.5 1902.3) rotate(178.07)" gradientUnits="userSpaceOnUse">
            <stop offset="0.01" stop-color="#cb9355"/>
            <stop offset="0.04" stop-color="#c99755"/>
            <stop offset="0.17" stop-color="#be8e50"/>
            <stop offset="0.4" stop-color="#a27643"/>
            <stop offset="0.55" stop-color="#8c6339"/>
            <stop offset="0.88" stop-color="#412312"/>
            <stop offset="1" stop-color="#391c0a"/>
        </linearGradient>
        <linearGradient id="linear-gradient-3" x1="2549.1" y1="1546.8" x2="2463.34" y2="1546.8" gradientTransform="translate(3291.5 1902.3) rotate(178.07)" gradientUnits="userSpaceOnUse">
            <stop offset="0.04" stop-color="#391c0a"/>
            <stop offset="0.32" stop-color="#754d25"/>
            <stop offset="0.54" stop-color="#946938"/>
            <stop offset="0.78" stop-color="#b18249"/>
            <stop offset="0.92" stop-color="#bc8c4f"/>
            <stop offset="0.98" stop-color="#cb9355"/>
        </linearGradient>
        <linearGradient id="linear-gradient-4" x1="824.52" y1="447.61" x2="917.35" y2="374.41" gradientTransform="matrix(1.04, -0.14, 0.19, 1.1, -222.69, 164.77)" gradientUnits="userSpaceOnUse">
            <stop offset="0.04" stop-color="#391c0a"/>
            <stop offset="0.21" stop-color="#412312"/>
            <stop offset="0.47" stop-color="#754d25"/>
            <stop offset="0.71" stop-color="#8c6339"/>
            <stop offset="0.92" stop-color="#bc8c4f"/>
            <stop offset="0.98" stop-color="#cb9355"/>
        </linearGradient>
        <linearGradient id="linear-gradient-5" x1="801.1" y1="643.98" x2="909.4" y2="618.98" gradientTransform="matrix(1.07, 0.03, 0.1, 1.29, -195.04, -299.46)" gradientUnits="userSpaceOnUse">
            <stop offset="0.04" stop-color="#391c0a"/>
            <stop offset="0.21" stop-color="#412312"/>
            <stop offset="0.53" stop-color="#8c6339"/>
            <stop offset="0.98" stop-color="#cb9355"/>
        </linearGradient>
        <linearGradient id="linear-gradient-6" x1="2699.67" y1="1496.55" x2="2636.65" y2="1323.39" gradientTransform="matrix(-1.04, 0.04, -0.03, -1.03, 3365.87, 1932.57)" gradientUnits="userSpaceOnUse">
            <stop offset="0.01" stop-color="#cb9355"/>
            <stop offset="0.15" stop-color="#c28c51"/>
            <stop offset="0.39" stop-color="#a87946"/>
            <stop offset="0.6" stop-color="#8c6339"/>
            <stop offset="1" stop-color="#391c0a"/>
        </linearGradient>
        <linearGradient id="linear-gradient-7" x1="669.66" y1="584.8" x2="858.59" y2="584.8" gradientTransform="translate(-13.06 62.95) rotate(-1.93)" gradientUnits="userSpaceOnUse">
            <stop offset="0.07" stop-color="#391c0a"/>
            <stop offset="0.31" stop-color="#412312"/>
            <stop offset="0.57" stop-color="#754d25"/>
            <stop offset="0.75" stop-color="#8c6339"/>
            <stop offset="0.92" stop-color="#bb874e"/>
            <stop offset="1" stop-color="#cf944a"/>
        </linearGradient>
        <linearGradient id="linear-gradient-8" x1="750.14" y1="617.15" x2="879.67" y2="617.15" gradientTransform="translate(-13.06 62.95) rotate(-1.93)" gradientUnits="userSpaceOnUse">
            <stop offset="0.04" stop-color="#391c0a"/>
            <stop offset="0.37" stop-color="#644227"/>
            <stop offset="0.74" stop-color="#b3804b"/>
            <stop offset="0.92" stop-color="#b8844d"/>
            <stop offset="0.98" stop-color="#cc9e58"/>
        </linearGradient>
        <linearGradient id="linear-gradient-9" x1="671.57" y1="707.65" x2="673.64" y2="668.13" gradientTransform="translate(-13.06 62.95) rotate(-1.93)" gradientUnits="userSpaceOnUse">
            <stop offset="0.01" stop-color="#cb9355"/>
            <stop offset="0.11" stop-color="#c28c51"/>
            <stop offset="0.27" stop-color="#a87946"/>
            <stop offset="0.42" stop-color="#8c6339"/>
            <stop offset="0.88" stop-color="#412312"/>
            <stop offset="1" stop-color="#391c0a"/>
        </linearGradient>
        <linearGradient id="linear-gradient-10" x1="759.19" y1="766.52" x2="775.78" y2="725.46" gradientTransform="matrix(1.18, -0.01, 0.08, 1.3, -356.81, -289.06)" gradientUnits="userSpaceOnUse">
            <stop offset="0.01" stop-color="#cb9355"/>
            <stop offset="0.12" stop-color="#c28b50"/>
            <stop offset="0.29" stop-color="#a87742"/>
            <stop offset="0.51" stop-color="#7f552b"/>
            <stop offset="0.56" stop-color="#754d25"/>
            <stop offset="0.77" stop-color="#412312"/>
            <stop offset="1" stop-color="#391c0a"/>
        </linearGradient>
        <linearGradient id="linear-gradient-11" x1="2792.25" y1="1308.79" x2="2691.98" y2="1366.68" gradientTransform="translate(3291.5 1902.3) rotate(178.07)" xlink:href="#linear-gradient-9"/>
        <linearGradient id="linear-gradient-12" x1="2588.18" y1="1227.33" x2="2807.61" y2="1227.33" gradientTransform="matrix(-1.04, 0.03, -0.04, -1.07, 3369.95, 1981.41)" gradientUnits="userSpaceOnUse">
            <stop offset="0" stop-color="#391c0a"/>
            <stop offset="0.49" stop-color="#8c6339"/>
            <stop offset="0.83" stop-color="#c99755"/>
        </linearGradient>
        <linearGradient id="linear-gradient-13" x1="656.9" y1="691.88" x2="880.99" y2="691.88" gradientTransform="translate(-13.06 62.95) rotate(-1.93)" gradientUnits="userSpaceOnUse">
            <stop offset="0.04" stop-color="#391c0a"/>
            <stop offset="0.37" stop-color="#644227"/>
            <stop offset="0.76" stop-color="#8c6339"/>
            <stop offset="0.98" stop-color="#cb9355"/>
        </linearGradient>
        <linearGradient id="linear-gradient-14" x1="556.31" y1="663.04" x2="764.04" y2="543.11" gradientTransform="matrix(0.89, -0.05, 0, 0.74, 212.61, 390.83)" gradientUnits="userSpaceOnUse">
            <stop offset="0.04" stop-color="#391c0a"/>
            <stop offset="0.21" stop-color="#412312"/>
            <stop offset="0.49" stop-color="#754d25"/>
            <stop offset="0.77" stop-color="#8c6339"/>
            <stop offset="0.92" stop-color="#b3895c"/>
            <stop offset="0.98" stop-color="#cb9355"/>
        </linearGradient>
        <linearGradient id="linear-gradient-15" x1="2541.71" y1="1293.36" x2="2784.68" y2="1293.36" gradientTransform="matrix(-1.04, 0.12, -0.08, -0.95, 3408.07, 1701.22)" gradientUnits="userSpaceOnUse">
            <stop offset="0.06" stop-color="#391c0a"/>
            <stop offset="0.47" stop-color="#8c6339"/>
            <stop offset="0.85" stop-color="#bc8b4f"/>
            <stop offset="1" stop-color="#ca9f57"/>
        </linearGradient>
        <linearGradient id="linear-gradient-16" x1="2588.72" y1="1211.78" x2="2824.06" y2="1211.78" gradientTransform="matrix(-1, 0.1, -0.1, -1, 3336.64, 1785.31)" gradientUnits="userSpaceOnUse">
            <stop offset="0.08" stop-color="#391c0a"/>
            <stop offset="0.49" stop-color="#8c6339"/>
            <stop offset="0.9" stop-color="#cb9355"/>
            <stop offset="1" stop-color="#cb9b57"/>
        </linearGradient>
        <linearGradient id="linear-gradient-17" x1="894.8" y1="965.53" x2="916.84" y2="1019.06" gradientTransform="matrix(1.2, 0, -0.06, 1.37, -234.69, -460.49)" gradientUnits="userSpaceOnUse">
            <stop offset="0.04" stop-color="#391c0a"/>
            <stop offset="0.27" stop-color="#412312"/>
            <stop offset="0.64" stop-color="#8c6339"/>
            <stop offset="0.98" stop-color="#cc9e58"/>
        </linearGradient>
        <linearGradient id="linear-gradient-18" x1="840.92" y1="864.48" x2="997.6" y2="864.48" gradientTransform="matrix(1.13, -0.03, 0.05, 1.15, -257.81, -115.43)" xlink:href="#linear-gradient-17"/>
        <linearGradient id="linear-gradient-19" x1="711.24" y1="802.57" x2="727.56" y2="847.41" gradientTransform="translate(-13.06 62.95) rotate(-1.93)" gradientUnits="userSpaceOnUse">
            <stop offset="0.21" stop-color="#412312"/>
            <stop offset="0.49" stop-color="#754d25"/>
            <stop offset="0.77" stop-color="#8c6339"/>
            <stop offset="0.83" stop-color="#a47a4e"/>
            <stop offset="0.98" stop-color="#c59b6c"/>
        </linearGradient>
        <linearGradient id="linear-gradient-20" x1="2550.52" y1="1134.22" x2="2557.09" y2="1196.77" gradientTransform="matrix(-1.08, 0.01, -0.06, -1.16, 3439.97, 2069.95)" gradientUnits="userSpaceOnUse">
            <stop offset="0.01" stop-color="#cb9355"/>
            <stop offset="0.13" stop-color="#c28c51"/>
            <stop offset="0.32" stop-color="#a87946"/>
            <stop offset="0.49" stop-color="#8c6339"/>
            <stop offset="0.88" stop-color="#412312"/>
            <stop offset="1" stop-color="#391c0a"/>
        </linearGradient>
        <linearGradient id="linear-gradient-21" x1="816.42" y1="725.25" x2="816.42" y2="663.71" gradientTransform="matrix(1.11, -0.01, 0.07, 1.22, -239.93, -203.76)" xlink:href="#linear-gradient-9"/>
        <linearGradient id="linear-gradient-22" x1="2467.72" y1="1700.12" x2="2503.04" y2="1694.53" gradientTransform="translate(3371.6 1776.6) rotate(173.69)" gradientUnits="userSpaceOnUse">
            <stop offset="0.01" stop-color="#cb9355"/>
            <stop offset="0.04" stop-color="#c99755"/>
            <stop offset="0.18" stop-color="#be8e50"/>
            <stop offset="0.42" stop-color="#a27643"/>
            <stop offset="0.58" stop-color="#8c6339"/>
            <stop offset="1" stop-color="#391c0a"/>
        </linearGradient>
        <linearGradient id="linear-gradient-23" x1="671.92" y1="872.24" x2="627.72" y2="825.61" gradientTransform="matrix(0.92, 0.03, 0.1, 1.13, 50.37, -181.08)" gradientUnits="userSpaceOnUse">
            <stop offset="0.01" stop-color="#cb9355"/>
            <stop offset="0.12" stop-color="#c28c51"/>
            <stop offset="0.3" stop-color="#a87946"/>
            <stop offset="0.47" stop-color="#8c6339"/>
            <stop offset="0.88" stop-color="#412312"/>
            <stop offset="1" stop-color="#391c0a"/>
        </linearGradient>
        <linearGradient id="linear-gradient-24" x1="391.82" y1="427.62" x2="388.93" y2="427.62" gradientTransform="matrix(1, 0, 0, 1, 0, 0)" xlink:href="#linear-gradient"/>
        <linearGradient id="linear-gradient-25" x1="758.74" y1="448.29" x2="758.74" y2="399.93" gradientTransform="matrix(0.98, -0.19, 0.19, 0.98, -133.24, 329.48)" xlink:href="#linear-gradient-9"/>
        <linearGradient id="linear-gradient-26" x1="2636.65" y1="1114.35" x2="2599.48" y2="1178.74" gradientTransform="translate(3291.5 1902.3) rotate(178.07)" xlink:href="#linear-gradient-9"/>
        <linearGradient id="linear-gradient-27" x1="2368.54" y1="936.42" x2="2330.81" y2="1001.78" gradientTransform="matrix(-1.52, -0.1, 0.28, -1.03, 3895.46, 2152.21)" xlink:href="#linear-gradient-9"/>
        <linearGradient id="linear-gradient-28" x1="715.29" y1="1725.05" x2="780.38" y2="1714.74" gradientTransform="matrix(1.24, -0.36, -0.17, -1.1, -93.5, 2600.06)" xlink:href="#linear-gradient-22"/>
        <linearGradient id="linear-gradient-29" x1="745.95" y1="428.03" x2="745.95" y2="391.11" gradientTransform="translate(-108.89 276.48) rotate(-8.99)" xlink:href="#linear-gradient-9"/>
        <linearGradient id="linear-gradient-30" x1="684.54" y1="1288.03" x2="697.61" y2="1323.94" gradientTransform="translate(588.68 -519.36) rotate(21.19)" gradientUnits="userSpaceOnUse">
            <stop offset="0.21" stop-color="#412312"/>
            <stop offset="0.49" stop-color="#754d25"/>
            <stop offset="0.66" stop-color="#8a6037"/>
            <stop offset="0.98" stop-color="#c59b6c"/>
        </linearGradient>
    </defs>
    <title>BWFavicon</title>
    <g id="Layer_1" data-name="Layer 1">
        <polygon class="cls-1" points="740 69 1212.27 435.77 1130.77 1028.16 577 1253.77 104.73 887 186.23 294.61 740 69"/>
        <polyline class="cls-1" points="1143.34 319.88 1148.78 322.43 1149.29 328.4"/>
        <line class="cls-2" x1="1150.32" y1="340.32" x2="1199.08" y2="906.25"/>
        <polyline class="cls-1" points="1199.59 912.21 1200.11 918.18 1195.19 921.62"/>
        <line class="cls-2" x1="1185.38" y1="928.47" x2="719.65" y2="1253.66"/>
        <polyline class="cls-1" points="714.75 1257.08 709.83 1260.52 704.4 1257.97"/>
        <line class="cls-2" x1="693.56" y1="1252.91" x2="179.07" y2="1012.17"/>
        <polyline class="cls-1" points="173.66 1009.63 168.22 1007.09 167.71 1001.11"/>
        <line class="cls-2" x1="166.68" y1="989.2" x2="117.92" y2="423.27"/>
        <polyline class="cls-1" points="117.41 417.31 116.89 411.33 121.81 407.9"/>
        <line class="cls-2" x1="131.62" y1="401.05" x2="597.35" y2="75.86"/>
        <polyline class="cls-1" points="602.25 72.44 607.17 69 612.6 71.54"/>
        <line class="cls-2" x1="623.44" y1="76.61" x2="1137.93" y2="317.35"/>
    </g>
    <g id="Layer_2" data-name="Layer 2">
        <path class="cls-3" d="M652,592.87c7-7.09-24-67.65-80.1-98.09-13.52-7.33-26.67-11.49-53-19.82-39-12.37-75.69-24-82.52-13.4-5.9,9.12,11,33.72,31.61,48.37,23.86,17,44,14.17,70.84,19.48C610.85,543.65,645.72,599.2,652,592.87Z"/>
        <path class="cls-4" d="M661.87,532.79c-31.56-18.49-58.43-67.73-71.9-75.12-6.27-3.44-11.51-6.94-16.75-13.46-10.7-13.3-6.38-35,9-45.49,9.77-6.64,24.22-10.7,26.5-21.36,2.06-9.63-8-17.08-17.71-20.67s-21-6.19-26.23-14.39c10.6-9.37,27.85-7.31,40.14-1.26s22.6,15.31,36,19.22c-10.74-37.52-.67-80.54,26.43-112.86,1.85-2.2,4.16-4.55,7.13-4.71s5.21,1.88,7,3.87c13.76,15.38,19.36,36.05,18.75,56.46-.72,24.1-9.79,48.41-25.61,68.66C694.76,385.49,699.36,397.61,700,406c1.45,19.73-18.51,29.22-30,67.83-3.51,11.76-5.48,18.63-3.83,27.47,4.66,25,33,38.06,41.31,41.58C685,543.73,670.61,537.92,661.87,532.79Z"/>
        <path class="cls-5" d="M701.18,516.59C692.23,514.78,683.18,441,720,391c6.23-8.43,21.31-28.86,36.13-25.63,12.31,2.68,18.62,20.43,19.87,31.66,3,27.32-20.55,46.85-23.23,49a28.43,28.43,0,0,1,7-12.16A3.81,3.81,0,0,1,761,434a2.32,2.32,0,0,1,.87.42c1,.94-29.06,31.24-49.85,65.5C704.13,512.89,703.35,517,701.18,516.59Z"/>
        <path class="cls-6" d="M730.84,524c.68-32.55,25.2-36.67,42-78.12,1.41-3.47,4-10.24,9.67-11.68,7.81-2,18.88,6.85,22.67,17.19.74,2,3.62,10.66-2.2,24.41-10.87,25.69-33.07,24.22-51.31,49.36-4.57,6.3-10.29,16.19-13.86,31C731.53,541.93,730.7,530.77,730.84,524Z"/>
        <path class="cls-7" d="M740.63,598.88c-2.54-1.64-1.31-7.81-.45-11.56,7-30.63,25.4-54.88,31.82-63.21,34.94-45.32,43-45,46.31-44.2,6.77,1.68,10.75,9.54,13.5,14.95,1,1.95,8.13,16.54,2.69,30.75-3.58,9.34-9.29,9.9-35,29.37-10.09,7.63-19.34,15.2-24.54,19.45C752.9,592.44,744.29,601.25,740.63,598.88Z"/>
        <path class="cls-8" d="M637.65,636.35c7.11-9.82-15-40.84-38.73-59.64-11.87-9.4-22.39-14.35-34.26-20-29.45-13.87-39.68-12-69.13-23.67-37.15-14.7-46-27.59-50.52-23.66-10.39,8.95,21.06,87.86,79.18,108.23,5.66,2,2.21.13,47.1,9.47C623.41,638,633.8,641.66,637.65,636.35Z"/>
        <path class="cls-9" d="M678.32,694.92c-3.08-13.85,51.52-22,90.4-72.1,14.81-19.07,14.09-27.15,33.54-48s48.91-43.44,57.36-37.09c6.61,5-1.29,26.28-2.61,29.86-5.57,15-14.35,24.66-16.65,26.59-49.36,41.23-73.47,112-129.51,111.76C697.24,705.89,680,702.39,678.32,694.92Z"/>
        <path class="cls-10" d="M759.19,702.78c-1.8-3.47,8.86-10,23.12-24.42,39.74-40.27,41.23-66.81,70.39-75.29,3.62-1.05,20-5.81,28.24,2.3,4.68,4.6,4.83,11.48,4.85,13.52.14,18.07-20.4,32.84-61.46,61.64-8.13,5.7-12.41,8.65-18.13,11.35C787,701,761.78,707.75,759.19,702.78Z"/>
        <path class="cls-11" d="M654.41,708.71c-25,2.13-46.79,9.58-46.44,13.28.39,3.92,25.66,3.74,46.48,11.74,7.4,2.84,11,4.41,13.94,5.8,9.3,4.43,11.57,6.86,20,8,19.47,2.51,35.48-8,43.89-13.44a87.19,87.19,0,0,0,24.75-24.58,272.63,272.63,0,0,1-34.7,1.72C689.52,710.69,679.16,706.6,654.41,708.71Z"/>
        <path class="cls-12" d="M559.27,667.63c-7-8.27-14.74-17.32-12-22.28,3.79-6.76,23,1.82,84,14.64,31.11,6.54,40.69,8.29,42.43,14.92,2.66,10.14-18.47,27.11-39.79,30.7C596.91,711.87,566.89,676.59,559.27,667.63Z"/>
        <path class="cls-13" d="M608.26,712.67c.48-3.3-13.27-5.85-31-14.71-5.44-2.72-21.71-11.28-53.64-43.46-44.45-44.79-48-63.56-72.6-67.88-1.11-.19-25.46-4.19-33.57,7.94-4.32,6.46-2.56,15.26.83,24.88,21.36,60.62,71.79,83.07,71.79,83.07,17.46,7.77,31.76,9.44,55.94,12.26C574.19,718,607.52,717.75,608.26,712.67Z"/>
        <path class="cls-14" d="M403.74,671.4c-9.18,5.94,1.24,51.33,29.74,80.79,20,20.73,43.48,27.7,80.67,38.76,25.87,7.69,45.09,9.7,66.36,11.93,25.88,2.71,50.66,5.3,52.64-1.31,2.74-9.19-40-31.11-47.79-35.08-13.58-7-23-10.47-35.36-15.37-41.7-16.5-62.89-24.89-82.9-36.12C423.44,690.5,410.89,666.78,403.74,671.4Z"/>
        <path class="cls-15" d="M668.87,790.26c-2.59-4.9,17.13-20,22.63-24.2,32.84-25.14,47-21.3,84.64-41.93,31.29-17.13,36.3-27.91,77.92-48.21,9-4.37,16.5-7.67,21.59-9.81,4,1.9,9.44,5.33,12.1,11.31,5.49,12.34-4.53,26.85-10.52,35.51-14.63,21.17-34.66,31.75-45.65,36.7C810.71,759,797.91,759,773.44,763.3,708.84,774.63,672.29,796.73,668.87,790.26Z"/>
        <path class="cls-16" d="M809,773.83a188.66,188.66,0,0,1,46-25c15.43-5.83,29.08-10.8,36.06-4.44,7.46,6.8,4.24,23.78-2.36,34.59-7.26,11.89-19,16.84-26.65,20-46.14,18.83-69.21,28.24-109.66,35.36-14.07,2.48-48.92,8.61-50.17,4.1-.84-3,13.86-9.8,26.36-15C765.92,804.53,791.67,787,809,773.83Z"/>
        <path class="cls-17" d="M398.92,780.13c.31-.8,2.11-4.15,25-3.38,64.42,2.16,86.24,30,136,37.44,54.49,8.13,94-15.4,96.33-8.86,2.23,6.29-33.57,30-75.71,35.07-26.06,3.13-44.76-1.89-76.35-10.73C452.58,815.23,395.35,789.33,398.92,780.13Z"/>
        <path class="cls-18" d="M401.65,803.11c1.89-2.29,6.82-1,21.57,4.12,47,16.33,75.46,30.27,75.46,30.27,29.8,14.6,23.5,12.82,31.68,16,27.56,10.77,44.82,9.75,90.39,21.91,22.91,6.11,24.45,7.94,24.47,9.33.11,7.61-45.34,17.75-89.87,14.79a221.11,221.11,0,0,1-34.83-5c-16.38-3.77-57-13.66-90.91-47.09C413.81,831.84,397,808.73,401.65,803.11Z"/>
        <path class="cls-19" d="M689.17,912.61c.79-4.11,35.41,6.08,74.54-5,5.75-1.62,8.17-2.58,23-7.12,16.87-5.18,23.7-5.89,35.4-10.9s11.29-6.58,23.72-12.47c14.46-6.85,38.82-18.39,47.11-10.63,5.27,4.93,3.65,17.27-.6,26-19.66,40.49-111.27,36.63-144.52,34-1.29-.1-5.37-.45-9.86-.88-15.94-1.51-24-2.31-30.92-4.33C700.84,919.52,688.69,915.06,689.17,912.61Z"/>
        <path class="cls-20" d="M731.12,898.85c-.6-2.4,10-4.11,34.55-18.09a435.31,435.31,0,0,0,68.67-49.18c16-14.49,21.25-22,34.33-24.6,14.18-2.8,32.44,1.35,35.51,10.53,5.5,16.37-38.82,44.34-45.25,48.4C800.58,902.74,732.61,904.84,731.12,898.85Z"/>
        <path class="cls-21" d="M648.21,873c.5-3,7.77-2.21,23.86-6.68,24.84-6.89,26.9-14.2,45.59-19.09,19-5,23,.94,46.83-1.58a142.55,142.55,0,0,0,46.43-13.28,101.87,101.87,0,0,1-8.71,12.84,100.27,100.27,0,0,1-14.08,14.5s-1.5,1.26-3.86,3c0,0-4.25,3.21-9,6.14-39.67,24.5-67.75,25.57-67.75,25.57C676.44,895.62,647.17,879.27,648.21,873Z"/>
        <path class="cls-22" d="M601.39,727.94c15.43,3.5,15.48,6.37,38.58,13.1,27.3,7.94,36.08,6.51,38.59,13.09,3.72,9.77-9.71,28.28-26,31.77-9.88,2.11-18.46-1.8-23-3.95-8.59-4.05-83.14-39.2-78.61-53.37C553.79,719.52,587.23,724.73,601.39,727.94Z"/>
        <path class="cls-23" d="M680.17,673.89c-10.2-2.76-15.34-11.88-15.63-12.4-5.94-10.9-1.42-22-.79-23.42a181,181,0,0,0,58.14-13.67c29.69-12.54,43-27.92,46-25,4.34,4.24-21.57,38.23-52.91,61.78C701.39,671.43,690.68,676.73,680.17,673.89Z"/>
        <path class="cls-24" d="M705.53,351.45a22.18,22.18,0,0,1,7.59-7.46,13.68,13.68,0,0,1,2.59-1.08c6-1.89,16.3,7.42,15.5,14.19-.64,5.43-7.76,5.13-17.25,15.07-7.51,7.86-8.13,13.37-10.36,12.93C699,384.18,700.22,360,705.53,351.45Z"/>
        <path class="cls-25" d="M669.66,813.67a233.46,233.46,0,0,1,46-25c27.65-11.18,66.38-21.4,69.84-14.06,2.44,5.16-13.44,17.22-22.62,24.2-17.18,13-41.34,31.4-69.46,25.77A58.6,58.6,0,0,1,669.66,813.67Z"/>
        <path class="cls-26" d="M390.38,429.12a1.5,1.5,0,0,0,0-3,1.5,1.5,0,0,0,0,3Z"/>
        <path class="cls-27" d="M667.57,627c-16.16-4.31-33.24-15.54-31.56-21.55,2.08-7.48,32.68-4.92,41-4.14A141.31,141.31,0,0,0,702.4,593c21.81-9.56,35.92-22.41,37.33-20.78.91,1-5.53,5.91-10.78,15.78-7.62,14.3-3,20.84-8.27,29C711.5,631.35,684.61,631.58,667.57,627Z"/>
        <path class="cls-28" d="M635.32,838.27c12.46-6.27,20.6-13.32,34.73-12.89,9.35.28,22.21,3.88,23.81,10.92,2.36,10.45-21.29,23.29-22.58,24-39.41,21.74-94.69-.4-94.1-8.36C577.55,847,602.69,854.68,635.32,838.27Z"/>
        <path class="cls-29" d="M649.09,899c14.64,2.93,37.95,10.74,38.27,20.86.38,12.11-32.34,22-36.79,23.36-72.87,22.06-155.58-20.88-153.36-30,.83-3.41,12.69,1.2,46.82-1.57C598.33,907.24,613.61,891.9,649.09,899Z"/>
        <path class="cls-30" d="M538.82,414.63a40.91,40.91,0,0,0-6.56-3.38,29.79,29.79,0,0,0-3-1,25.39,25.39,0,0,0-4.59-.81,13.5,13.5,0,0,0-4.3.13c-11.91,2.33-21.79,21.82-17.24,34.6,1.51,4.25,5,8.74,27.9,17.86,30.84,12.27,46.26,18.41,50.78,12.85C591.06,463.43,543.58,417.72,538.82,414.63Z"/>
        <path class="cls-31" d="M684.64,582.85c-22-2.68-37.69-24.44-34.71-29.59,3.16-5.46,25.78,10.13,61.38,5,12.64-1.82,18.83-5.09,19.88-3.14C733.44,559.27,711.51,586.12,684.64,582.85Z"/>
        <path class="cls-32" d="M697,930c4.63-7.6,29,7.08,70.63,9.35,35.73,1.94,57-6.71,58.53-2,1.69,5.09-21.24,19.79-46.29,25.83-9.68,2.34-46.73,11.28-70.38-10.19C702.74,946.83,693.79,935.23,697,930Z"/>
    </g>
</svg>