<svg xmlns="http://www.w3.org/2000/svg" xmlns:xlink="http://www.w3.org/1999/xlink" viewBox="0 0 2955 423"><defs><style>.cls-1{fill:#104c39;}.cls-2,.cls-3,.cls-4{fill:none;stroke-miterlimit:10;}.cls-2,.cls-3{stroke:#114d3a;}.cls-3{stroke-dasharray:2.02 2.02;}.cls-4{stroke:#104c39;}.cls-5{fill:url(#linear-gradient);}.cls-6{fill:url(#linear-gradient-2);}.cls-7{fill:url(#linear-gradient-3);}.cls-8{fill:url(#linear-gradient-4);}.cls-9{fill:url(#linear-gradient-5);}.cls-10{fill:url(#linear-gradient-6);}.cls-11{fill:url(#linear-gradient-7);}.cls-12{fill:url(#linear-gradient-8);}.cls-13{fill:url(#linear-gradient-9);}.cls-14{fill:url(#linear-gradient-10);}.cls-15{fill:url(#linear-gradient-11);}.cls-16{fill:url(#linear-gradient-12);}.cls-17{fill:url(#linear-gradient-13);}.cls-18{fill:url(#linear-gradient-14);}.cls-19{fill:url(#linear-gradient-15);}.cls-20{fill:url(#linear-gradient-16);}.cls-21{fill:url(#linear-gradient-17);}.cls-22{fill:url(#linear-gradient-18);}.cls-23{fill:url(#linear-gradient-19);}.cls-24{fill:url(#linear-gradient-20);}.cls-25{fill:url(#linear-gradient-21);}.cls-26{fill:url(#linear-gradient-22);}.cls-27{fill:url(#linear-gradient-23);}.cls-28{fill:url(#linear-gradient-24);}.cls-29{fill:url(#linear-gradient-25);}.cls-30{fill:url(#linear-gradient-26);}.cls-31{fill:url(#linear-gradient-27);}.cls-32{fill:url(#linear-gradient-28);}</style><linearGradient id="linear-gradient" x1="2121.85" y1="427.04" x2="2070.85" y2="427.04" gradientTransform="translate(3699.48 389.48) rotate(173.92)" gradientUnits="userSpaceOnUse"><stop offset="0.01" stop-color="#cb9355"/><stop offset="0.04" stop-color="#c99755"/><stop offset="0.16" stop-color="#be8e50"/><stop offset="0.36" stop-color="#a27643"/><stop offset="0.49" stop-color="#8c6339"/><stop offset="0.88" stop-color="#412312"/><stop offset="1" stop-color="#391c0a"/></linearGradient><linearGradient id="linear-gradient-2" x1="2071.07" y1="482.27" x2="2080.14" y2="408.42" gradientTransform="translate(3683.4 527.71) rotate(178.07)" gradientUnits="userSpaceOnUse"><stop offset="0.01" stop-color="#cb9355"/><stop offset="0.04" stop-color="#c99755"/><stop offset="0.17" stop-color="#be8e50"/><stop offset="0.4" stop-color="#a27643"/><stop offset="0.55" stop-color="#8c6339"/><stop offset="0.88" stop-color="#412312"/><stop offset="1" stop-color="#391c0a"/></linearGradient><linearGradient id="linear-gradient-3" x1="2063.3" y1="431.58" x2="2041.82" y2="431.58" gradientTransform="translate(3683.4 527.71) rotate(178.07)" gradientUnits="userSpaceOnUse"><stop offset="0.04" stop-color="#391c0a"/><stop offset="0.32" stop-color="#754d25"/><stop offset="0.54" stop-color="#946938"/><stop offset="0.78" stop-color="#b18249"/><stop offset="0.92" stop-color="#bc8c4f"/><stop offset="0.98" stop-color="#cb9355"/></linearGradient><linearGradient id="linear-gradient-4" x1="1621.18" y1="144.26" x2="1644.44" y2="125.92" gradientTransform="matrix(1.04, -0.14, 0.19, 1.1, -97.53, 265.83)" gradientUnits="userSpaceOnUse"><stop offset="0.04" stop-color="#391c0a"/><stop offset="0.21" stop-color="#412312"/><stop offset="0.47" stop-color="#754d25"/><stop offset="0.71" stop-color="#8c6339"/><stop offset="0.92" stop-color="#bc8c4f"/><stop offset="0.98" stop-color="#cb9355"/></linearGradient><linearGradient id="linear-gradient-5" x1="1622.91" y1="198.99" x2="1650.04" y2="192.73" gradientTransform="matrix(1.07, 0.03, 0.1, 1.29, -137.25, -105.07)" gradientUnits="userSpaceOnUse"><stop offset="0.04" stop-color="#391c0a"/><stop offset="0.21" stop-color="#412312"/><stop offset="0.53" stop-color="#8c6339"/><stop offset="0.98" stop-color="#cb9355"/></linearGradient><linearGradient id="linear-gradient-6" x1="2105.51" y1="421.02" x2="2089.72" y2="377.65" gradientTransform="matrix(-1.04, 0.04, -0.03, -1.03, 3766.78, 534.51)" gradientUnits="userSpaceOnUse"><stop offset="0.01" stop-color="#cb9355"/><stop offset="0.15" stop-color="#c28c51"/><stop offset="0.39" stop-color="#a87946"/><stop offset="0.6" stop-color="#8c6339"/><stop offset="1" stop-color="#391c0a"/></linearGradient><linearGradient id="linear-gradient-7" x1="1587.04" y1="195.42" x2="1634.37" y2="195.42" gradientTransform="translate(10.04 69.54) rotate(-1.93)" gradientUnits="userSpaceOnUse"><stop offset="0.07" stop-color="#391c0a"/><stop offset="0.31" stop-color="#412312"/><stop offset="0.57" stop-color="#754d25"/><stop offset="0.75" stop-color="#8c6339"/><stop offset="0.92" stop-color="#bb874e"/><stop offset="1" stop-color="#cf944a"/></linearGradient><linearGradient id="linear-gradient-8" x1="1607.2" y1="203.53" x2="1639.65" y2="203.53" gradientTransform="translate(10.04 69.54) rotate(-1.93)" gradientUnits="userSpaceOnUse"><stop offset="0.04" stop-color="#391c0a"/><stop offset="0.37" stop-color="#644227"/><stop offset="0.74" stop-color="#b3804b"/><stop offset="0.92" stop-color="#b8844d"/><stop offset="0.98" stop-color="#cc9e58"/></linearGradient><linearGradient id="linear-gradient-9" x1="1587.52" y1="226.19" x2="1588.04" y2="216.29" gradientTransform="translate(10.04 69.54) rotate(-1.93)" gradientUnits="userSpaceOnUse"><stop offset="0.01" stop-color="#cb9355"/><stop offset="0.11" stop-color="#c28c51"/><stop offset="0.27" stop-color="#a87946"/><stop offset="0.42" stop-color="#8c6339"/><stop offset="0.88" stop-color="#412312"/><stop offset="1" stop-color="#391c0a"/></linearGradient><linearGradient id="linear-gradient-10" x1="1613.17" y1="251.56" x2="1617.32" y2="241.27" gradientTransform="matrix(1.18, -0.01, 0.08, 1.3, -343.15, -83.26)" gradientUnits="userSpaceOnUse"><stop offset="0.01" stop-color="#cb9355"/><stop offset="0.12" stop-color="#c28b50"/><stop offset="0.29" stop-color="#a87742"/><stop offset="0.51" stop-color="#7f552b"/><stop offset="0.56" stop-color="#754d25"/><stop offset="0.77" stop-color="#412312"/><stop offset="1" stop-color="#391c0a"/></linearGradient><linearGradient id="linear-gradient-11" x1="2124.2" y1="371.96" x2="2099.09" y2="386.46" gradientTransform="translate(3683.4 527.71) rotate(178.07)" xlink:href="#linear-gradient-9"/><linearGradient id="linear-gradient-12" x1="2077.64" y1="350.37" x2="2132.6" y2="350.37" gradientTransform="matrix(-1.04, 0.03, -0.04, -1.07, 3761.91, 560.22)" gradientUnits="userSpaceOnUse"><stop offset="0" stop-color="#391c0a"/><stop offset="0.49" stop-color="#8c6339"/><stop offset="0.83" stop-color="#c99755"/></linearGradient><linearGradient id="linear-gradient-13" x1="1583.85" y1="222.24" x2="1639.98" y2="222.24" gradientTransform="translate(10.04 69.54) rotate(-1.93)" gradientUnits="userSpaceOnUse"><stop offset="0.04" stop-color="#391c0a"/><stop offset="0.37" stop-color="#644227"/><stop offset="0.76" stop-color="#8c6339"/><stop offset="0.98" stop-color="#cb9355"/></linearGradient><linearGradient id="linear-gradient-14" x1="1537.65" y1="169.2" x2="1589.69" y2="139.16" gradientTransform="matrix(0.89, -0.05, 0, 0.74, 236.83, 222.84)" gradientUnits="userSpaceOnUse"><stop offset="0.04" stop-color="#391c0a"/><stop offset="0.21" stop-color="#412312"/><stop offset="0.49" stop-color="#754d25"/><stop offset="0.77" stop-color="#8c6339"/><stop offset="0.92" stop-color="#b3895c"/><stop offset="0.98" stop-color="#cb9355"/></linearGradient><linearGradient id="linear-gradient-15" x1="2062.37" y1="364.85" x2="2123.24" y2="364.85" gradientTransform="matrix(-1.04, 0.12, -0.08, -0.95, 3773.52, 345.1)" gradientUnits="userSpaceOnUse"><stop offset="0.06" stop-color="#391c0a"/><stop offset="0.47" stop-color="#8c6339"/><stop offset="0.85" stop-color="#bc8b4f"/><stop offset="1" stop-color="#ca9f57"/></linearGradient><linearGradient id="linear-gradient-16" x1="2065.06" y1="342.26" x2="2124.01" y2="342.26" gradientTransform="matrix(-1, 0.1, -0.1, -1, 3682.71, 400.08)" gradientUnits="userSpaceOnUse"><stop offset="0.08" stop-color="#391c0a"/><stop offset="0.49" stop-color="#8c6339"/><stop offset="0.9" stop-color="#cb9355"/><stop offset="1" stop-color="#cb9b57"/></linearGradient><linearGradient id="linear-gradient-17" x1="1636.81" y1="344.36" x2="1642.33" y2="357.76" gradientTransform="matrix(1.2, 0, -0.06, 1.37, -314.36, -206.17)" gradientUnits="userSpaceOnUse"><stop offset="0.04" stop-color="#391c0a"/><stop offset="0.27" stop-color="#412312"/><stop offset="0.64" stop-color="#8c6339"/><stop offset="0.98" stop-color="#cc9e58"/></linearGradient><linearGradient id="linear-gradient-18" x1="1647.29" y1="280.79" x2="1686.54" y2="280.79" gradientTransform="matrix(1.13, -0.03, 0.05, 1.15, -252.51, -4.17)" xlink:href="#linear-gradient-17"/><linearGradient id="linear-gradient-19" x1="1597.46" y1="249.97" x2="1601.55" y2="261.2" gradientTransform="translate(10.04 69.54) rotate(-1.93)" gradientUnits="userSpaceOnUse"><stop offset="0.21" stop-color="#412312"/><stop offset="0.49" stop-color="#754d25"/><stop offset="0.77" stop-color="#8c6339"/><stop offset="0.83" stop-color="#a47a4e"/><stop offset="0.98" stop-color="#c59b6c"/></linearGradient><linearGradient id="linear-gradient-20" x1="2060.59" y1="315.18" x2="2062.24" y2="330.85" gradientTransform="matrix(-1.08, 0.01, -0.06, -1.16, 3829.06, 589.91)" gradientUnits="userSpaceOnUse"><stop offset="0.01" stop-color="#cb9355"/><stop offset="0.13" stop-color="#c28c51"/><stop offset="0.32" stop-color="#a87946"/><stop offset="0.49" stop-color="#8c6339"/><stop offset="0.88" stop-color="#412312"/><stop offset="1" stop-color="#391c0a"/></linearGradient><linearGradient id="linear-gradient-21" x1="1631.15" y1="236.46" x2="1631.15" y2="221.05" gradientTransform="matrix(1.11, -0.01, 0.07, 1.22, -214.33, -52.2)" xlink:href="#linear-gradient-9"/><linearGradient id="linear-gradient-22" x1="1591.92" y1="280.23" x2="1580.85" y2="268.55" gradientTransform="matrix(0.92, 0.03, 0.1, 1.13, 132.71, -98.22)" gradientUnits="userSpaceOnUse"><stop offset="0.01" stop-color="#cb9355"/><stop offset="0.12" stop-color="#c28c51"/><stop offset="0.3" stop-color="#a87946"/><stop offset="0.47" stop-color="#8c6339"/><stop offset="0.88" stop-color="#412312"/><stop offset="1" stop-color="#391c0a"/></linearGradient><linearGradient id="linear-gradient-23" x1="1609.34" y1="157.31" x2="1609.34" y2="145.2" gradientTransform="matrix(0.98, -0.19, 0.19, 0.98, -3, 356.07)" xlink:href="#linear-gradient-9"/><linearGradient id="linear-gradient-24" x1="2085.23" y1="323.26" x2="2075.92" y2="339.38" gradientTransform="translate(3683.4 527.71) rotate(178.07)" xlink:href="#linear-gradient-9"/><linearGradient id="linear-gradient-25" x1="2048.18" y1="277.27" x2="2038.72" y2="293.64" gradientTransform="matrix(-1.52, -0.1, 0.28, -1.03, 4607.99, 785.33)" xlink:href="#linear-gradient-9"/><linearGradient id="linear-gradient-26" x1="1533.94" y1="474.55" x2="1550.24" y2="471.97" gradientTransform="matrix(1.24, -0.36, -0.17, -1.1, -256.88, 1240.32)" gradientUnits="userSpaceOnUse"><stop offset="0.01" stop-color="#cb9355"/><stop offset="0.04" stop-color="#c99755"/><stop offset="0.18" stop-color="#be8e50"/><stop offset="0.42" stop-color="#a27643"/><stop offset="0.58" stop-color="#8c6339"/><stop offset="1" stop-color="#391c0a"/></linearGradient><linearGradient id="linear-gradient-27" x1="1602.81" y1="152.71" x2="1602.81" y2="143.46" gradientTransform="translate(0.5 300.49) rotate(-8.99)" xlink:href="#linear-gradient-9"/><linearGradient id="linear-gradient-28" x1="1518.44" y1="407" x2="1521.71" y2="415.99" gradientTransform="translate(355.49 -640.59) rotate(21.19)" gradientUnits="userSpaceOnUse"><stop offset="0.21" stop-color="#412312"/><stop offset="0.49" stop-color="#754d25"/><stop offset="0.66" stop-color="#8a6037"/><stop offset="0.98" stop-color="#c59b6c"/></linearGradient></defs><title>BWD1HeaderColor</title><g id="Layer_1" data-name="Layer 1"><path class="cls-1" d="M147.37,166.1q8.61-.69,17.61-.68A26.59,26.59,0,0,1,180.54,170q6.57,4.56,6.57,13.22a22.42,22.42,0,0,1-3.48,12.08,24.48,24.48,0,0,1-8.33,8.44,28.42,28.42,0,0,1,13.13,8.66,20.6,20.6,0,0,1,5.3,13.8q0,10.71-6.56,16.3t-18,5.59q-11.41,0-21.8-.92ZM181.81,183a11,11,0,0,0-5-9.63A19.55,19.55,0,0,0,165.53,170q-6.24,0-12.86.45v31.12h5.41q4,0,11.7.69a25,25,0,0,0,8.5-7.87A19.59,19.59,0,0,0,181.81,183ZM183,238.55a15.11,15.11,0,0,0,5.18-11.8,17.36,17.36,0,0,0-5-12.43q-5-5.23-13.74-7.18a43.49,43.49,0,0,0-9.44-.91h-7.34v36.36q4.86.57,17.11.57Q177.84,243.16,183,238.55Z"/><path class="cls-1" d="M261,247.38V166.21q10.49-.79,17.55-.79,11.25,0,18.54,6t7.29,16.93a24.59,24.59,0,0,1-4.2,13.79,38.14,38.14,0,0,1-9.38,10.15q4.08,5.82,10.1,13.85t7.78,10.09q6.74,7.41,15.24,8.44l-.11,3.64a23.27,23.27,0,0,1-18.94-8.2Q301,236,285.9,214.55q-10.81,0-19.64-.68v33.51ZM282.7,210q4.86,0,10.38-6.61A23.22,23.22,0,0,0,298.6,188q0-8.72-5.69-13.22t-15.06-4.5q-5,0-11.59.45v38.65Q275.08,210,282.7,210Z"/><path class="cls-1" d="M377.74,247.38V165.87H383v81.51Z"/><path class="cls-1" d="M490.44,173.05a39.65,39.65,0,0,0-16-3.53q-16.12,0-16.12,12.31a15.84,15.84,0,0,0,3.64,10,40.8,40.8,0,0,0,8.83,8.2q5.19,3.6,10.38,7.36a37.54,37.54,0,0,1,8.83,9,19.58,19.58,0,0,1,3.64,11.4q0,10.38-6.73,15.68t-18.6,5.3q-11.87,0-20.25-6.27l2.65-4.1a30.53,30.53,0,0,0,17.44,5.35q9.48,0,14.57-3.93t5.07-11.34a15.5,15.5,0,0,0-3.64-9.75,42.85,42.85,0,0,0-8.83-8.32q-5.19-3.7-10.38-7.58a38.38,38.38,0,0,1-8.83-9.24,20.15,20.15,0,0,1-3.64-11.51,15.68,15.68,0,0,1,5.8-12.83q5.79-4.72,15.67-4.73a41.66,41.66,0,0,1,18.38,4.11Z"/><path class="cls-1" d="M575.44,170.66H548.73v-4.79h58.72v4.79H580.74v76.72h-5.3Z"/><path class="cls-1" d="M668.6,247.38V165.87h5.3v76.5h36.32v5Z"/><path class="cls-1" d="M771.37,247.38V165.87H808v4.79H776.67v30H805v4.68H776.67v37.27h32.56v4.79Z"/><path class="cls-1" d="M911.89,248.75a40.76,40.76,0,0,1-29.59-12.14q-12.36-12.15-12.36-30t10.82-30q10.82-12.13,27.7-12.14a84.2,84.2,0,0,1,26.83,4.56l-1.44,4.56a85.89,85.89,0,0,0-25.39-4.1q-14.46,0-23.62,10.72t-9.16,26.22a36.36,36.36,0,0,0,10.65,26.39,34.47,34.47,0,0,0,25.56,10.88q13,0,22.51-4.1l1.66,3.88a35,35,0,0,1-11,3.87A67,67,0,0,1,911.89,248.75Z"/><path class="cls-1" d="M1005.55,236.55q-11-12.2-11-30t11-29.93q11-12.13,27.76-12.14t27.81,12.14q11,12.15,11,29.93t-11,30q-11,12.19-27.81,12.2T1005.55,236.55Zm3.91-56.37q-9.15,10.66-9.16,26.39t9.22,26.45q9.21,10.71,23.84,10.71T1057.21,233q9.21-10.71,9.21-26.45t-9.21-26.39q-9.23-10.67-23.9-10.66T1009.46,180.18Z"/><path class="cls-1" d="M1145.9,178.87l.22,9.69v58.82h-5.3V165.19h2.43l52,61.9q5.29,6.49,8.17,10.37-.45-5.46-.44-12.54v-59h5.3v82.2h-2.43l-53-63q-5.52-6.5-7.06-8.66Z"/><path class="cls-1" d="M1281.56,247.38V165.87h36.65v4.79h-31.35v30h28.37v4.68h-28.37v37.27h32.56v4.79Z"/><path class="cls-1" d="M1874.14,227.66,1897,167.47h3.2l20,60.65q2.31,7.17,3.09,10.37.88-3.77,3.09-10.26l20.31-62.36h5.52l-27.49,82.2h-3.09l-20.42-60.42c-.29-1-.6-2-.94-3s-.6-1.86-.82-2.62a18.6,18.6,0,0,0-.67-1.94l-.44-1.37a6.63,6.63,0,0,1-.11-.68q-1.32,4.11-3.42,9.46l-23.07,60.54h-3.09l-27.71-82.2h5.85L1867,227.2q1.44,4.11,2.38,7.41c.62,2.21,1,3.42,1.05,3.65A80.53,80.53,0,0,1,1874.14,227.66Z"/><path class="cls-1" d="M2012.67,247.38V165.87h36.65v4.79H2018v30h28.37v4.68H2018v37.27h32.56v4.79Z"/><path class="cls-1" d="M2115.88,247.38V165.87h5.3v76.5h36.31v5Z"/><path class="cls-1" d="M2218.64,247.38V165.87h5.3v76.5h36.32v5Z"/><path class="cls-1" d="M2326.49,178.87l.22,9.69v58.82h-5.3V165.19h2.43l52,61.9q5.3,6.49,8.17,10.37-.45-5.46-.44-12.54v-59h5.29v82.2h-2.42l-53-63q-5.52-6.5-7.06-8.66Z"/><path class="cls-1" d="M2462.15,247.38V165.87h36.65v4.79h-31.35v30h28.37v4.68h-28.37v37.27H2500v4.79Z"/><path class="cls-1" d="M2599.47,173.05a39.74,39.74,0,0,0-16-3.53q-16.12,0-16.12,12.31a15.79,15.79,0,0,0,3.65,10,40.58,40.58,0,0,0,8.83,8.2q5.19,3.6,10.37,7.36a37.36,37.36,0,0,1,8.83,9,19.59,19.59,0,0,1,3.65,11.4q0,10.38-6.74,15.68t-18.6,5.3q-11.86,0-20.25-6.27l2.65-4.1a30.55,30.55,0,0,0,17.44,5.35q9.49,0,14.57-3.93t5.08-11.34a15.51,15.51,0,0,0-3.65-9.75,42.6,42.6,0,0,0-8.83-8.32q-5.19-3.7-10.37-7.58a38.19,38.19,0,0,1-8.83-9.24,20.09,20.09,0,0,1-3.65-11.51,15.68,15.68,0,0,1,5.8-12.83q5.79-4.72,15.67-4.73a41.66,41.66,0,0,1,18.38,4.11Z"/><path class="cls-1" d="M2704,173.05a39.7,39.7,0,0,0-16-3.53q-16.11,0-16.11,12.31a15.78,15.78,0,0,0,3.64,10,40.58,40.58,0,0,0,8.83,8.2q5.19,3.6,10.38,7.36a37.73,37.73,0,0,1,8.83,9,19.58,19.58,0,0,1,3.64,11.4q0,10.38-6.73,15.68t-18.6,5.3q-11.86,0-20.26-6.27l2.65-4.1a30.55,30.55,0,0,0,17.44,5.35q9.5,0,14.57-3.93t5.08-11.34a15.56,15.56,0,0,0-3.64-9.75,43.11,43.11,0,0,0-8.83-8.32q-5.19-3.7-10.38-7.58a38.38,38.38,0,0,1-8.83-9.24,20.07,20.07,0,0,1-3.64-11.51,15.7,15.7,0,0,1,5.79-12.83q5.8-4.72,15.68-4.73a41.69,41.69,0,0,1,18.38,4.11Z"/></g><g id="Layer_2" data-name="Layer 2"><polyline class="cls-2" points="1617.9 71.65 1618.82 71.27 1619.61 71.88"/><line class="cls-3" x1="1621.21" y1="73.12" x2="1735.53" y2="161.91"/><polyline class="cls-2" points="1736.33 162.53 1737.12 163.14 1736.99 164.13"/><line class="cls-3" x1="1736.71" y1="166.14" x2="1716.98" y2="309.53"/><polyline class="cls-2" points="1716.84 310.54 1716.71 311.53 1715.78 311.9"/><line class="cls-3" x1="1713.91" y1="312.67" x2="1579.86" y2="367.28"/><polyline class="cls-2" points="1578.92 367.66 1577.99 368.04 1577.2 367.43"/><line class="cls-3" x1="1575.61" y1="366.19" x2="1461.28" y2="277.4"/><polyline class="cls-2" points="1460.48 276.78 1459.69 276.17 1459.83 275.18"/><line class="cls-3" x1="1460.11" y1="273.17" x2="1479.83" y2="129.78"/><polyline class="cls-2" points="1479.97 128.77 1480.11 127.78 1481.04 127.41"/><line class="cls-3" x1="1482.91" y1="126.64" x2="1616.96" y2="72.03"/><polygon class="cls-4" points="1721.22 134.75 1734.08 283.98 1611.27 369.73 1475.6 306.25 1462.74 157.02 1585.55 71.27 1721.22 134.75"/><path class="cls-5" d="M1596.78,203.49c1.77-1.77-6-16.94-20.07-24.57-3.38-1.83-6.68-2.88-13.26-5-9.78-3.1-19-6-20.67-3.36-1.48,2.28,2.76,8.45,7.91,12.12,6,4.25,11,3.55,17.75,4.88C1586.47,191.16,1595.21,205.08,1596.78,203.49Z"/><path class="cls-6" d="M1599.25,188.44c-7.9-4.63-14.63-17-18-18.81a12.76,12.76,0,0,1-4.19-3.37c-2.68-3.34-1.6-8.77,2.26-11.4,2.45-1.66,6.07-2.68,6.64-5.35.52-2.41-2-4.28-4.44-5.18s-5.27-1.55-6.57-3.6c2.66-2.35,7-1.83,10.06-.32s5.66,3.84,9,4.82c-2.69-9.4-.17-20.18,6.62-28.27a2.69,2.69,0,0,1,1.78-1.18,2.31,2.31,0,0,1,1.76,1,20.11,20.11,0,0,1,4.69,14.14,29.66,29.66,0,0,1-6.41,17.2c5,3.46,6.18,6.49,6.34,8.58.36,5-4.64,7.32-7.52,17-.88,3-1.38,4.67-1,6.89,1.16,6.26,8.26,9.53,10.34,10.41A20.23,20.23,0,0,1,1599.25,188.44Z"/><path class="cls-7" d="M1609.1,184.38c-2.24-.45-4.51-18.94,4.72-31.44,1.56-2.12,5.34-7.23,9-6.42,3.08.67,4.67,5.11,5,7.93.76,6.84-5.15,11.73-5.82,12.27a7.1,7.1,0,0,1,1.76-3.05.89.89,0,0,1,.29,0,.64.64,0,0,1,.22.1c.26.24-7.28,7.82-12.49,16.41C1609.84,183.46,1609.64,184.49,1609.1,184.38Z"/><path class="cls-8" d="M1616.53,186.23c.17-8.15,6.31-9.18,10.53-19.56.35-.87,1-2.57,2.42-2.93,2-.49,4.73,1.71,5.68,4.31.18.5.9,2.67-.55,6.11-2.73,6.44-8.29,6.07-12.86,12.37a21.67,21.67,0,0,0-3.47,7.76A18.56,18.56,0,0,1,1616.53,186.23Z"/><path class="cls-9" d="M1619,205c-.63-.41-.33-2-.11-2.9,1.76-7.67,6.36-13.75,8-15.83,8.75-11.35,10.76-11.28,11.6-11.07,1.69.42,2.69,2.39,3.38,3.74.25.49,2,4.15.67,7.71-.89,2.33-2.32,2.48-8.77,7.35-2.53,1.91-4.85,3.81-6.15,4.87C1622.05,203.38,1619.9,205.59,1619,205Z"/><path class="cls-10" d="M1593.19,214.38c1.78-2.46-3.76-10.23-9.71-14.93a39.5,39.5,0,0,0-8.58-5c-7.37-3.48-9.94-3-17.31-5.93-9.31-3.68-11.52-6.91-12.66-5.93-2.6,2.24,5.28,22,19.83,27.11,1.42.5.56,0,11.8,2.37C1589.62,214.79,1592.22,215.71,1593.19,214.38Z"/><path class="cls-11" d="M1603.37,229.05c-.77-3.46,12.91-5.51,22.65-18.05,3.71-4.78,3.53-6.81,8.4-12s12.25-10.88,14.37-9.29c1.65,1.24-.33,6.58-.66,7.48a17.93,17.93,0,0,1-4.17,6.66c-12.36,10.33-18.4,28.05-32.44,28C1608.11,231.8,1603.79,230.93,1603.37,229.05Z"/><path class="cls-12" d="M1623.63,231c-.45-.87,2.22-2.49,5.79-6.11,10-10.09,10.33-16.74,17.63-18.86.91-.27,5-1.46,7.08.57a4.85,4.85,0,0,1,1.21,3.39c0,4.53-5.11,8.23-15.39,15.44a29.36,29.36,0,0,1-4.54,2.84C1630.59,230.57,1624.28,232.27,1623.63,231Z"/><path class="cls-13" d="M1597.38,232.51c-6.27.53-11.72,2.4-11.63,3.33s6.43.93,11.64,2.94c1.86.71,2.77,1.1,3.49,1.45,2.33,1.11,2.9,1.72,5,2,4.88.63,8.89-2,11-3.37a22,22,0,0,0,6.2-6.15,68.5,68.5,0,0,1-8.7.43C1606.18,233,1603.58,232,1597.38,232.51Z"/><path class="cls-14" d="M1573.55,222.22c-1.76-2.07-3.69-4.34-3-5.58.94-1.69,5.75.45,21,3.67,7.8,1.63,10.2,2.07,10.63,3.73.67,2.54-4.62,6.79-10,7.69C1583,233.3,1575.46,224.46,1573.55,222.22Z"/><path class="cls-15" d="M1585.82,233.5c.12-.83-3.32-1.46-7.75-3.68-1.36-.68-5.44-2.83-13.44-10.89-11.13-11.22-12-15.92-18.18-17-.28-.05-6.38-1.05-8.41,2-1.08,1.61-.64,3.82.21,6.23a37.27,37.27,0,0,0,18,20.81c4.37,1.94,8,2.36,14,3.07C1577.29,234.85,1585.64,234.77,1585.82,233.5Z"/><path class="cls-16" d="M1534.59,223.16c-2.29,1.49.31,12.86,7.45,20.24,5,5.19,10.9,6.94,20.21,9.71a82.94,82.94,0,0,0,16.62,3c6.49.68,12.69,1.33,13.19-.33.69-2.3-10-7.79-12-8.79a89.28,89.28,0,0,0-8.86-3.85c-10.45-4.13-15.75-6.23-20.77-9C1539.53,228,1536.38,222,1534.59,223.16Z"/><path class="cls-17" d="M1601,252.94c-.65-1.23,4.29-5,5.66-6.07,8.23-6.29,11.77-5.33,21.21-10.5,7.83-4.29,9.09-7,19.51-12.08,2.25-1.09,4.14-1.91,5.41-2.45a5.93,5.93,0,0,1,3,2.83c1.38,3.09-1.13,6.73-2.63,8.9a27.41,27.41,0,0,1-11.44,9.19c-5.22,2.35-8.43,2.35-14.56,3.42C1611,249,1601.86,254.56,1601,252.94Z"/><path class="cls-18" d="M1636.1,248.82a47,47,0,0,1,11.53-6.26c3.86-1.46,7.28-2.7,9-1.11s1.06,6-.59,8.66c-1.82,3-4.75,4.22-6.67,5-11.56,4.71-17.34,7.07-27.47,8.86-3.53.62-12.26,2.15-12.57,1-.21-.76,3.47-2.45,6.6-3.76A127.34,127.34,0,0,0,1636.1,248.82Z"/><path class="cls-19" d="M1533.39,250.4c.07-.2.52-1,6.25-.85,16.13.54,21.6,7.52,34.08,9.38,13.65,2,23.55-3.86,24.13-2.22s-8.41,7.52-19,8.79c-6.52.78-11.21-.48-19.12-2.69C1546.83,259.19,1532.49,252.7,1533.39,250.4Z"/><path class="cls-20" d="M1534.07,256.16c.47-.58,1.71-.26,5.4,1a185.49,185.49,0,0,1,18.9,7.58c7.47,3.66,5.89,3.21,7.94,4,6.91,2.7,11.23,2.45,22.64,5.49,5.74,1.53,6.13,2,6.13,2.34,0,1.9-11.35,4.44-22.51,3.7a54.43,54.43,0,0,1-8.73-1.26c-4.1-.95-14.27-3.42-22.77-11.8C1537.12,263.35,1532.91,257.56,1534.07,256.16Z"/><path class="cls-21" d="M1606.09,283.58c.2-1,8.87,1.53,18.67-1.24,1.44-.41,2-.65,5.76-1.79,4.23-1.29,5.94-1.47,8.87-2.73s2.83-1.64,5.94-3.12c3.62-1.71,9.72-4.61,11.8-2.66,1.32,1.23.92,4.32-.15,6.52-4.92,10.14-27.87,9.17-36.2,8.52l-2.47-.22a44,44,0,0,1-7.75-1.09C1609,285.32,1606,284.2,1606.09,283.58Z"/><path class="cls-22" d="M1616.6,280.14c-.15-.6,2.51-1,8.65-4.53a109.26,109.26,0,0,0,17.2-12.32c4-3.63,5.33-5.52,8.6-6.16,3.56-.71,8.13.33,8.9,2.63,1.38,4.1-9.72,11.11-11.34,12.13C1634,281.11,1617,281.64,1616.6,280.14Z"/><path class="cls-23" d="M1595.83,273.66c.13-.76,2-.55,6-1.67,6.22-1.73,6.74-3.56,11.42-4.79s5.76.24,11.73-.39a35.77,35.77,0,0,0,11.63-3.33,26.58,26.58,0,0,1-2.18,3.22,25.33,25.33,0,0,1-3.53,3.63s-.38.32-1,.76c0,0-1.06.8-2.25,1.54-9.94,6.13-17,6.4-17,6.4C1602.9,279.33,1595.57,275.23,1595.83,273.66Z"/><path class="cls-24" d="M1584.1,237.33c3.87.87,3.88,1.59,9.67,3.28,6.83,2,9,1.63,9.66,3.28.93,2.44-2.43,7.08-6.51,8a9,9,0,0,1-5.77-1c-2.15-1-20.83-9.81-19.69-13.36C1572.18,235.22,1580.56,236.52,1584.1,237.33Z"/><path class="cls-25" d="M1603.84,223.79a6.9,6.9,0,0,1-3.92-3.11,7,7,0,0,1-.2-5.86,45.79,45.79,0,0,0,14.57-3.43c7.43-3.14,10.78-7,11.53-6.26,1.09,1.06-5.4,9.58-13.26,15.48C1609.15,223.17,1606.47,224.5,1603.84,223.79Z"/><path class="cls-26" d="M1601.2,258.8a58.47,58.47,0,0,1,11.54-6.26c6.92-2.8,16.62-5.36,17.49-3.52.61,1.29-3.37,4.31-5.67,6.06-4.3,3.27-10.35,7.87-17.39,6.46A14.69,14.69,0,0,1,1601.2,258.8Z"/><path class="cls-27" d="M1600.68,212.05c-4-1.08-8.33-3.89-7.91-5.4.53-1.87,8.19-1.23,10.27-1a35,35,0,0,0,6.36-2.09c5.47-2.4,9-5.62,9.35-5.21s-1.38,1.48-2.69,3.95c-1.91,3.59-.76,5.23-2.08,7.28C1611.68,213.13,1605,213.19,1600.68,212.05Z"/><path class="cls-28" d="M1592.6,265c3.12-1.57,5.16-3.33,8.7-3.23,2.34.08,5.57,1,6,2.74.6,2.62-5.33,5.83-5.65,6-9.87,5.45-23.72-.1-23.57-2.09C1578.13,267.15,1584.43,269.07,1592.6,265Z"/><path class="cls-29" d="M1596.05,280.18c3.67.73,9.51,2.69,9.59,5.22.09,3-8.1,5.52-9.22,5.85-18.25,5.53-39-5.23-38.41-7.51.2-.85,3.18.3,11.73-.4C1583.34,282.24,1587.16,278.4,1596.05,280.18Z"/><path class="cls-30" d="M1568.43,158.85a10.37,10.37,0,0,0-1.64-.85,7.47,7.47,0,0,0-.77-.26,6,6,0,0,0-1.14-.2,3.32,3.32,0,0,0-1.08,0c-3,.58-5.46,5.47-4.32,8.67.38,1.06,1.25,2.19,7,4.47,7.72,3.07,11.59,4.61,12.72,3.22C1581.52,171.07,1569.62,159.62,1568.43,158.85Z"/><path class="cls-31" d="M1605,201c-5.53-.67-9.44-6.12-8.7-7.41s6.46,2.54,15.38,1.25c3.16-.46,4.71-1.27,5-.79C1617.18,195.08,1611.69,201.8,1605,201Z"/><path class="cls-32" d="M1608.05,287.93c1.17-1.9,7.26,1.77,17.7,2.34,9,.49,14.26-1.68,14.66-.49s-5.32,5-11.6,6.47c-2.42.58-11.7,2.82-17.63-2.56C1609.49,292.16,1607.25,289.25,1608.05,287.93Z"/></g></svg>